<svg width="730" height="310" viewBox="0 0 730 310" fill="none" xmlns="http://www.w3.org/2000/svg">
<g clip-path="url(#clip0_2012_101)">
<rect width="730" height="310" fill="#F7EFDB"/>
<path d="M451 149.372H578V287.372H451V149.372Z" fill="#0F100D"/>
<path d="M552.157 182.434C552.157 190.255 545.816 196.596 537.995 196.596C530.173 196.596 523.833 190.255 523.833 182.434C523.833 174.612 530.173 168.272 537.995 168.272C545.816 168.272 552.157 174.612 552.157 182.434Z" fill="#DFCFAF"/>
<path d="M553.967 204.795L514.036 195.85L481.453 236.313L490.398 243.447L515.634 213.633L508.606 246.429L481.666 292.428L495.509 300.84L525.749 250.901L538.846 253.669L531.819 286.891H548.536L555.457 255.692L542.893 252.604L553.967 204.795Z" fill="#DFCFAF"/>
<path d="M698.868 -21L706.776 -12.8529L427.908 257.84L420 249.693L698.868 -21Z" fill="#B73020"/>
<path d="M189.182 65.55H263.064V76.948H189.182V65.55ZM216.652 92.446H259.538V103.434H216.652V92.446ZM213.536 119.67H262.654V130.658H213.536V119.67ZM232.396 80.064H244.45V125.492H232.396V80.064ZM214.438 54.808L226.902 57.76C224.825 64.5387 222.201 71.208 219.03 77.768C215.914 84.328 212.115 90.4233 207.632 96.054C203.204 101.685 197.956 106.523 191.888 110.568C191.505 109.42 190.959 108.135 190.248 106.714C189.592 105.293 188.909 103.899 188.198 102.532C187.487 101.111 186.831 99.908 186.23 98.924C189.947 96.628 193.309 93.8127 196.316 90.478C199.323 87.1433 202.001 83.508 204.352 79.572C206.703 75.5813 208.698 71.4813 210.338 67.272C212.033 63.0627 213.399 58.908 214.438 54.808ZM197.956 89.494H210.01V132.708H197.956V89.494Z" fill="#0E100E"/>
<path d="M286.434 111.306C287.855 111.306 289.277 111.771 290.698 112.7C292.174 113.629 294.115 114.695 296.52 115.898C299.253 117.429 302.533 118.413 306.36 118.85C310.187 119.233 314.314 119.424 318.742 119.424C320.655 119.424 322.842 119.369 325.302 119.26C327.817 119.151 330.413 119.014 333.092 118.85C335.771 118.631 338.395 118.385 340.964 118.112C343.588 117.839 345.911 117.538 347.934 117.21C347.497 118.358 347.005 119.752 346.458 121.392C345.911 122.977 345.447 124.563 345.064 126.148C344.681 127.788 344.463 129.182 344.408 130.33C343.041 130.439 341.292 130.549 339.16 130.658C337.083 130.767 334.814 130.849 332.354 130.904C329.949 131.013 327.516 131.095 325.056 131.15C322.651 131.205 320.382 131.232 318.25 131.232C313.111 131.232 308.683 130.931 304.966 130.33C301.303 129.729 297.941 128.663 294.88 127.132C292.912 126.093 291.19 125.109 289.714 124.18C288.293 123.251 287.117 122.786 286.188 122.786C285.368 122.786 284.411 123.333 283.318 124.426C282.279 125.465 281.213 126.749 280.12 128.28C279.081 129.811 278.097 131.341 277.168 132.872L268.886 120.982C271.838 118.085 274.899 115.761 278.07 114.012C281.295 112.208 284.083 111.306 286.434 111.306ZM270.362 64.32L279.792 57.924C281.104 59.1267 282.498 60.4933 283.974 62.024C285.505 63.5547 286.926 65.0853 288.238 66.616C289.605 68.092 290.698 69.4587 291.518 70.716L281.35 77.85C280.694 76.5927 279.737 75.1987 278.48 73.668C277.277 72.0827 275.938 70.47 274.462 68.83C273.041 67.19 271.674 65.6867 270.362 64.32ZM291.026 85.148V117.21H279.628V96.136H271.1V85.148H291.026ZM291.518 66.042H345.474V77.112H291.518V66.042ZM325.712 68.338L337.52 70.388C335.607 78.424 332.955 85.476 329.566 91.544C326.177 97.5573 321.913 102.723 316.774 107.042C311.69 111.306 305.649 114.805 298.652 117.538C298.269 116.663 297.668 115.57 296.848 114.258C296.083 112.946 295.235 111.661 294.306 110.404C293.377 109.092 292.557 108.026 291.846 107.206C301.467 104.145 309.011 99.4433 314.478 93.102C319.945 86.7607 323.689 78.506 325.712 68.338ZM308.164 57.76L319.644 54.152C320.737 56.0107 321.776 58.0607 322.76 60.302C323.799 62.4887 324.509 64.4293 324.892 66.124L312.674 70.06C312.401 68.4747 311.827 66.5067 310.952 64.156C310.077 61.8053 309.148 59.6733 308.164 57.76ZM293.896 84.574L301.932 77.522C305.157 79.7087 308.711 82.1413 312.592 84.82C316.473 87.4987 320.355 90.2593 324.236 93.102C328.172 95.89 331.862 98.6233 335.306 101.302C338.75 103.981 341.647 106.441 343.998 108.682L335.06 117.292C332.928 115.051 330.222 112.563 326.942 109.83C323.717 107.042 320.191 104.172 316.364 101.22C312.537 98.268 308.683 95.3707 304.802 92.528C300.921 89.6307 297.285 86.9793 293.896 84.574Z" fill="#0E100E"/>
<path d="M353.92 74.242H429.278V85.722H353.92V74.242ZM364.58 57.432H376.962V117.292H427.31V128.854H364.58V57.432ZM385.9 55.71H397.79V98.514H406.646V56.448H419.192V109.42H385.9V55.71Z" fill="#0E100E"/>
<path d="M456.666 80.228V84.492H492.418V80.228H456.666ZM456.666 67.272V71.454H492.418V67.272H456.666ZM444.776 57.76H504.882V94.004H444.776V57.76ZM487.006 87.772C488.755 90.1227 490.969 92.3093 493.648 94.332C496.381 96.3547 499.47 98.1313 502.914 99.662C506.358 101.193 509.993 102.423 513.82 103.352C512.945 104.117 511.989 105.101 510.95 106.304C509.966 107.507 509.009 108.764 508.08 110.076C507.205 111.333 506.467 112.481 505.866 113.52C501.821 112.153 497.994 110.404 494.386 108.272C490.833 106.085 487.58 103.571 484.628 100.728C481.731 97.8853 479.189 94.7693 477.002 91.38L487.006 87.772ZM461.996 87.69L472.492 91.708C470.305 94.9333 467.709 97.9673 464.702 100.81C461.695 103.598 458.388 106.113 454.78 108.354C451.227 110.541 447.455 112.345 443.464 113.766C442.917 112.782 442.179 111.689 441.25 110.486C440.321 109.283 439.364 108.108 438.38 106.96C437.396 105.757 436.467 104.773 435.592 104.008C439.255 102.969 442.781 101.63 446.17 99.99C449.559 98.2953 452.621 96.4093 455.354 94.332C458.087 92.2547 460.301 90.0407 461.996 87.69ZM456.748 103.024H469.048V109.01C469.048 110.978 468.802 113.083 468.31 115.324C467.873 117.565 466.998 119.807 465.686 122.048C464.374 124.235 462.433 126.312 459.864 128.28C457.349 130.248 453.987 131.943 449.778 133.364C449.286 132.38 448.548 131.287 447.564 130.084C446.635 128.881 445.623 127.679 444.53 126.476C443.491 125.328 442.535 124.371 441.66 123.606C444.995 122.622 447.646 121.529 449.614 120.326C451.637 119.069 453.14 117.784 454.124 116.472C455.163 115.105 455.846 113.739 456.174 112.372C456.557 111.005 456.748 109.721 456.748 108.518V103.024ZM468.474 62.516H480.528V89.084H468.474V62.516ZM481.102 103.27H493.566V132.462H481.102V103.27Z" fill="#0E100E"/>
<path d="M197.3 166.256H222.638V222.426H197.3V212.012H211.896V176.588H197.3V166.256ZM190.412 166.256H201.154V228.248H190.412V166.256ZM196.972 187.658H216.98V197.908H196.972V187.658ZM201.564 152.89L214.602 154.694C213.618 157.591 212.607 160.434 211.568 163.222C210.584 166.01 209.682 168.388 208.862 170.356L199.35 168.306C199.678 166.83 199.979 165.19 200.252 163.386C200.58 161.582 200.853 159.778 201.072 157.974C201.345 156.115 201.509 154.421 201.564 152.89ZM232.97 165.436H256.258V176.26H232.97V165.436ZM252.158 165.436H263.146C263.146 165.436 263.146 165.764 263.146 166.42C263.146 167.076 263.146 167.814 263.146 168.634C263.146 169.454 263.119 170.11 263.064 170.602C262.845 179.731 262.599 187.494 262.326 193.89C262.053 200.286 261.725 205.589 261.342 209.798C260.959 213.953 260.495 217.233 259.948 219.638C259.401 221.989 258.691 223.738 257.816 224.886C256.559 226.69 255.247 227.92 253.88 228.576C252.513 229.287 250.928 229.806 249.124 230.134C247.484 230.407 245.461 230.544 243.056 230.544C240.705 230.544 238.3 230.517 235.84 230.462C235.785 228.877 235.375 226.963 234.61 224.722C233.899 222.481 232.997 220.54 231.904 218.9C234.528 219.119 236.961 219.255 239.202 219.31C241.498 219.365 243.193 219.392 244.286 219.392C245.106 219.392 245.762 219.283 246.254 219.064C246.801 218.845 247.347 218.463 247.894 217.916C248.55 217.205 249.097 215.757 249.534 213.57C250.026 211.329 250.409 208.213 250.682 204.222C251.01 200.177 251.283 195.147 251.502 189.134C251.775 183.066 251.994 175.905 252.158 167.65V165.436ZM232.396 153.136L243.876 155.842C242.783 159.833 241.443 163.851 239.858 167.896C238.327 171.887 236.66 175.659 234.856 179.212C233.052 182.765 231.221 185.854 229.362 188.478C228.651 187.822 227.695 187.057 226.492 186.182C225.289 185.253 224.059 184.378 222.802 183.558C221.599 182.683 220.533 182 219.604 181.508C221.408 179.267 223.103 176.615 224.688 173.554C226.328 170.493 227.804 167.213 229.116 163.714C230.428 160.161 231.521 156.635 232.396 153.136ZM228.214 190.446L237.562 185.198C238.819 187.057 240.159 189.107 241.58 191.348C243.056 193.535 244.45 195.694 245.762 197.826C247.129 199.903 248.222 201.762 249.042 203.402L238.956 209.552C238.245 207.857 237.261 205.917 236.004 203.73C234.801 201.543 233.517 199.302 232.15 197.006C230.783 194.655 229.471 192.469 228.214 190.446Z" fill="#0E100E"/>
<path d="M289.304 171.668H335.88V182.246H289.304V171.668ZM289.304 187.576H333.994V197.744H289.304V187.576ZM288.156 203.156H334.322V213.57H288.156V203.156ZM282.088 171.668H294.306V193.726C294.306 196.678 294.142 199.876 293.814 203.32C293.486 206.709 292.885 210.126 292.01 213.57C291.135 217.014 289.878 220.267 288.238 223.328C286.598 226.444 284.466 229.177 281.842 231.528C281.241 230.708 280.339 229.724 279.136 228.576C277.988 227.428 276.813 226.307 275.61 225.214C274.407 224.175 273.369 223.41 272.494 222.918C275.501 220.239 277.66 217.233 278.972 213.898C280.339 210.563 281.186 207.147 281.514 203.648C281.897 200.095 282.088 196.733 282.088 193.562V171.668ZM329.648 171.668H341.948V218.08C341.948 220.923 341.593 223.164 340.882 224.804C340.226 226.499 338.996 227.811 337.192 228.74C335.333 229.615 333.201 230.161 330.796 230.38C328.391 230.653 325.575 230.79 322.35 230.79C322.186 229.697 321.885 228.439 321.448 227.018C321.011 225.597 320.519 224.203 319.972 222.836C319.425 221.469 318.879 220.267 318.332 219.228C319.48 219.283 320.71 219.337 322.022 219.392C323.334 219.447 324.509 219.474 325.548 219.474C326.641 219.474 327.407 219.474 327.844 219.474C328.5 219.474 328.965 219.365 329.238 219.146C329.511 218.873 329.648 218.435 329.648 217.834V171.668ZM305.704 176.014H317.84V228.822H305.704V176.014ZM294.798 157.236H324.4V166.912H294.798V157.236ZM291.518 152.398L304.638 154.858C302.725 158.63 300.565 162.293 298.16 165.846C295.809 169.345 293.103 172.707 290.042 175.932C286.981 179.103 283.509 182.109 279.628 184.952C279.027 183.968 278.207 182.902 277.168 181.754C276.184 180.606 275.118 179.513 273.97 178.474C272.877 177.381 271.865 176.533 270.936 175.932C274.38 173.691 277.414 171.285 280.038 168.716C282.662 166.092 284.931 163.386 286.844 160.598C288.757 157.81 290.315 155.077 291.518 152.398ZM320.71 157.236H323.416L325.302 156.744L333.42 162.32C332.108 164.233 330.523 166.283 328.664 168.47C326.805 170.602 324.865 172.707 322.842 174.784C320.819 176.807 318.879 178.611 317.02 180.196C315.981 179.267 314.669 178.255 313.084 177.162C311.553 176.069 310.187 175.167 308.984 174.456C310.515 173.035 312.045 171.422 313.576 169.618C315.107 167.814 316.501 166.01 317.758 164.206C319.07 162.347 320.054 160.762 320.71 159.45V157.236Z" fill="#0E100E"/>
<path d="M388.36 218.49H413.862V227.428H388.36V218.49ZM392.296 175.44H417.06V183.968H392.296V175.44ZM379.75 204.304H422.308V230.626H410.582V213.16H390.984V230.626H379.75V204.304ZM392.952 182C394.975 183.585 397.435 185.116 400.332 186.592C403.229 188.013 406.4 189.353 409.844 190.61C413.343 191.813 416.978 192.906 420.75 193.89C424.522 194.819 428.267 195.612 431.984 196.268C430.781 197.416 429.497 198.947 428.13 200.86C426.763 202.719 425.697 204.359 424.932 205.78C421.16 204.96 417.361 203.921 413.534 202.664C409.762 201.407 406.072 199.985 402.464 198.4C398.856 196.76 395.439 194.983 392.214 193.07C388.989 191.157 386.091 189.107 383.522 186.92L392.952 182ZM414.928 175.44H417.06L418.864 174.948L426.408 179.54C424.003 183.203 421.023 186.51 417.47 189.462C413.971 192.414 410.063 195.038 405.744 197.334C401.425 199.63 396.888 201.625 392.132 203.32C387.376 204.96 382.565 206.354 377.7 207.502C377.153 206.135 376.306 204.523 375.158 202.664C374.065 200.751 372.999 199.22 371.96 198.072C376.388 197.307 380.789 196.268 385.162 194.956C389.535 193.589 393.663 192.004 397.544 190.2C401.425 188.341 404.869 186.319 407.876 184.132C410.883 181.945 413.233 179.595 414.928 177.08V175.44ZM353.92 221.606C355.451 220.239 357.145 218.627 359.004 216.768C360.863 214.909 362.776 212.914 364.744 210.782C366.767 208.595 368.707 206.409 370.566 204.222L377.536 212.914C376.005 214.882 374.393 216.877 372.698 218.9C371.003 220.923 369.281 222.918 367.532 224.886C365.837 226.909 364.115 228.904 362.366 230.872L353.92 221.606ZM357.528 178.064L364.334 170.028C365.701 170.739 367.259 171.586 369.008 172.57C370.812 173.499 372.561 174.456 374.256 175.44C376.005 176.369 377.454 177.189 378.602 177.9L371.55 186.838C370.511 186.073 369.145 185.198 367.45 184.214C365.81 183.175 364.088 182.109 362.284 181.016C360.535 179.923 358.949 178.939 357.528 178.064ZM352.608 194.382L359.496 186.346C360.917 187.111 362.503 188.013 364.252 189.052C366.056 190.091 367.778 191.129 369.418 192.168C371.113 193.152 372.507 194.054 373.6 194.874L366.384 203.812C365.4 202.992 364.088 202.035 362.448 200.942C360.863 199.794 359.195 198.646 357.446 197.498C355.697 196.35 354.084 195.311 352.608 194.382ZM390.164 170.192L401.48 172.57C398.637 176.67 395.467 180.633 391.968 184.46C388.524 188.232 384.643 191.84 380.324 195.284C379.395 194.136 378.11 192.851 376.47 191.43C374.83 189.954 373.381 188.861 372.124 188.15C376.115 185.471 379.641 182.519 382.702 179.294C385.818 176.069 388.305 173.035 390.164 170.192ZM371.304 152.89H382.948V171.75H371.304V152.89ZM399.84 152.89H411.484V171.75H399.84V152.89ZM354.904 156.826H428.376V167.24H354.904V156.826Z" fill="#0E100E"/>
</g>
<defs>
<clipPath id="clip0_2012_101">
<rect width="730" height="310" fill="white"/>
</clipPath>
</defs>
</svg>
