<svg width="730" height="310" viewBox="0 0 730 310" fill="none" xmlns="http://www.w3.org/2000/svg">
<g clip-path="url(#clip0_5_9)">
<rect width="730" height="310" fill="url(#paint0_linear_5_9)"/>
<path d="M264.328 102.256V114.608H257.8V108.528H216.84V116.144H210.312V102.256H233.544C232.712 100.72 231.816 99.312 230.792 98.032L238.088 96.88C238.92 98.48 239.752 100.272 240.648 102.256H264.328ZM220.168 110.32H226.568V115.248H235.784V121.136H226.568V126.064H238.664V131.952H227.592V148.4C227.592 153.904 225.672 156.72 221.832 156.72H216.968L215.56 150.64C216.968 150.896 218.312 151.088 219.72 151.088C220.744 151.088 221.32 149.68 221.32 146.864V131.952H210.056V126.064H220.168V110.32ZM214.024 133.936L219.656 135.152C218.184 141.68 216.136 147.312 213.512 152.112L208.264 148.784C210.952 144.112 212.872 139.184 214.024 133.936ZM235.208 133.616C236.552 137.456 237.768 141.936 238.856 146.928L233.288 148.336C232.392 143.856 231.24 139.568 229.832 135.472L235.208 133.616ZM237.96 115.888H261.192V119.088C260.744 127.792 258.632 135.408 254.792 141.872C257.736 145.456 261.512 148.848 266.056 151.92L261.64 156.976C257.416 153.904 253.896 150.64 251.016 147.184C247.816 151.024 243.912 154.288 239.368 157.104L234.952 151.664C239.944 148.912 244.04 145.648 247.112 141.872C243.272 135.856 241.032 129.2 240.52 122.032H237.96V115.888ZM246.344 122.032C246.856 127.088 248.328 131.824 250.888 136.24C253.064 132.016 254.472 127.28 254.984 122.032H246.344Z" fill="url(#paint1_linear_5_9)"/>
<path d="M304.136 97.392H310.6V100.976H319.688V106.352H310.6V109.04H318.472V114.288H310.6V117.04H320.84V122.608H293.448V117.04H304.136V114.288H295.944V109.04H304.136V106.352H294.408V100.976H304.136V97.392ZM302.28 138.672V141.68H312.584V138.672H302.28ZM312.584 133.68V130.48H302.28V133.68H312.584ZM302.28 146.672V156.528H295.88V125.104H318.792V150.96C318.792 154.416 316.936 156.208 313.352 156.208H309.384L307.848 150.512L311.56 150.768C312.2 150.768 312.584 150.384 312.584 149.68V146.672H302.28ZM330.12 96.88L336.392 98.288C335.88 99.12 335.432 99.888 334.984 100.656H347.016V105.2C345.544 107.696 344.072 109.872 342.6 111.792H349.256V123.44H351.88V129.584H349.256V141.36H337.736V149.744C337.736 154.032 335.624 156.208 331.464 156.208H325.192L323.848 149.936C325.64 150.192 327.432 150.384 329.16 150.384C330.568 150.384 331.272 149.616 331.272 148.144V141.36H322.568V135.088H331.272V129.584H320.904V123.44H331.272V118H322.952V113.776L319.112 109.232C323.336 106.352 326.984 102.256 330.12 96.88ZM337.736 118V123.44H342.856V118H337.736ZM337.736 129.584V135.088H342.856V129.584H337.736ZM325.832 111.792H334.984C336.456 110.128 337.992 108.208 339.528 106.032H331.272C329.544 108.144 327.752 110.064 325.832 111.792Z" fill="url(#paint2_linear_5_9)"/>
<path d="M406.216 97.136C408.008 100.336 409.8 103.92 411.528 107.952H431.176V113.008C423.944 126.832 413.512 137.392 399.944 144.688C402.504 146.992 405.576 148.272 409.16 148.528C412.168 148.656 416.456 148.72 422.024 148.72C425.416 148.72 430.088 148.528 436.104 148.272L434.44 154.864H423.048C417.352 154.864 413.256 154.8 410.824 154.736C403.784 154.608 398.536 152.688 394.952 148.848C393.544 147.376 392.456 146.672 391.56 146.672C390.344 146.672 388.04 149.936 384.584 156.464L379.272 152.752C383.624 144.048 387.72 139.76 391.688 139.76C392.52 139.76 393.288 139.888 394.056 140.272C394.248 140.336 394.44 140.4 394.568 140.528C406.856 134 416.328 125.296 422.984 114.48H383.304V107.952H404.104C402.44 104.56 400.584 101.36 398.472 98.416L406.216 97.136Z" fill="url(#paint3_linear_5_9)"/>
<path d="M464.52 102H489.288V97.52H496.072V102H520.776V108.016H496.072V112.048H517.448V118H468.04V112.048H489.288V108.016H464.52V102ZM489.992 127.152H475.784V130.672C475.784 131.376 475.72 132.08 475.72 132.784H489.992V127.152ZM496.712 132.784H509.832V127.152H496.712V132.784ZM475.208 138.672C474.184 145.648 471.944 151.856 468.488 157.232L462.984 152.304C467.08 146.736 469.128 139.504 469.192 130.672V121.264H516.296V138.672H475.208Z" fill="url(#paint4_linear_5_9)"/>
<path d="M201.056 186.264H204.944V192.42H217.724V209.988H213.944V208.008H204.944V220.032H201.056V208.008H192.092V209.988H188.312V192.42H201.056V186.264ZM192.092 204.336H201.056V196.092H192.092V204.336ZM204.944 204.336H213.944V196.092H204.944V204.336Z" fill="url(#paint5_linear_5_9)"/>
<path d="M230.072 193.428H247.892V196.812H240.908V200.916H246.776V204.228H240.908V208.944H244.184C243.608 207.612 242.96 206.46 242.24 205.452L245.228 204.48C246.02 205.596 246.74 206.82 247.316 208.152L245.552 208.944H248.936V212.328H229.1V208.944H237.092V204.228H231.224V200.916H237.092V196.812H230.072V193.428ZM254.264 187.704V219.708H250.448V218.376H227.552V219.708H223.736V187.704H254.264ZM227.552 214.848H250.448V191.232H227.552V214.848Z" fill="url(#paint6_linear_5_9)"/>
<path d="M289.076 187.56V207.972H285.26V191.16H275.9V207.972H272.192V187.56H289.076ZM287.852 219.168H284.144C281.768 219.168 280.616 217.944 280.616 215.496V210.744C280.184 211.824 279.716 212.796 279.176 213.66C277.376 216.396 274.46 218.484 270.428 219.96L268.412 216.792C272.336 215.28 275 213.408 276.368 211.212C277.736 208.8 278.528 205.668 278.672 201.852V193.32H282.236V201.852C282.164 204.084 281.912 206.064 281.48 207.864H284.36V214.668C284.36 215.388 284.648 215.748 285.224 215.748H287.168C287.564 215.748 287.852 215.568 288.032 215.208C288.248 214.776 288.392 213.624 288.464 211.68L291.956 212.796C291.704 215.892 291.272 217.764 290.66 218.34C290.012 218.88 289.076 219.168 287.852 219.168ZM259.124 199.368H262.832V192.024H258.62V188.46H270.788V192.024H266.648V199.368H270.284V202.968H266.648V209.7C268.052 209.196 269.456 208.692 270.824 208.116V211.716C267.224 213.156 263.372 214.38 259.268 215.388L258.368 211.788C259.88 211.5 261.392 211.176 262.832 210.816V202.968H259.124V199.368Z" fill="url(#paint7_linear_5_9)"/>
<path d="M295.304 189.324H310.928V192.996H305.816V199.584H309.452V201.528C311.684 197.316 313.196 192.276 314.024 186.372L317.732 186.804C317.444 188.568 317.12 190.26 316.724 191.844H327.128V195.516H324.824C324.536 201.096 323.24 205.848 320.9 209.808C322.916 212.688 325.292 214.956 328.028 216.576L325.868 219.78C323.096 218.088 320.684 215.784 318.668 212.904C316.22 215.748 313.124 218.052 309.344 219.816L307.04 216.72C311.108 214.992 314.312 212.652 316.616 209.664C315.284 207.288 314.132 204.624 313.196 201.672C312.476 203.04 311.72 204.336 310.928 205.56L309.056 203.112H305.816V210.996C307.472 210.492 309.092 209.988 310.604 209.484V212.94C306.176 214.524 301.064 216 295.268 217.332L294.26 213.876L296.312 213.444V197.172H299.804V212.616C300.632 212.4 301.424 212.22 302.18 212.004V192.996H295.304V189.324ZM318.704 206.244C320.216 203.076 321.044 199.512 321.188 195.516H315.68C315.5 196.092 315.32 196.632 315.14 197.136C316.112 200.556 317.3 203.58 318.704 206.244Z" fill="url(#paint8_linear_5_9)"/>
<path d="M339.908 202.284V219.636H336.164V202.932C335.012 206.172 333.572 209.124 331.844 211.788L330.152 207.468C332.816 204.336 334.796 200.736 336.02 196.704H330.944V193.068H336.164V186.444H339.908V193.068H344.264V196.704H339.908V198.18C341.636 199.764 343.364 201.564 345.092 203.508L342.932 206.784C341.78 204.984 340.772 203.472 339.908 202.284ZM357.764 191.844H349.664C350.096 196.596 351.356 200.952 353.48 204.876C355.604 200.988 357.044 196.668 357.764 191.844ZM351.32 208.26C348.404 203.292 346.676 197.82 346.1 191.844H344.768V188.208H361.436V191.772C360.428 198.18 358.52 203.76 355.712 208.44C357.944 211.536 360.68 214.308 363.992 216.756L361.436 219.78C358.304 217.26 355.676 214.524 353.552 211.644C351.104 214.812 348.224 217.512 344.84 219.708L342.392 216.648C345.992 214.272 348.98 211.464 351.32 208.26Z" fill="url(#paint9_linear_5_9)"/>
<path d="M368.312 188.496H380.876V186.444H384.692V188.496H397.76V191.448H384.692V192.852H395.996V195.66H384.692V197.136H399.164V199.944H366.836V197.136H380.876V195.66H369.752V192.852H380.876V191.448H368.312V188.496ZM368.996 215.388C369.572 213.588 370.112 211.752 370.544 209.844H366.548V206.712H371.12C371.408 204.876 371.66 203.004 371.804 201.096H394.844C394.772 203.184 394.736 205.056 394.7 206.712H399.416V209.844H394.592C394.52 210.852 394.484 211.716 394.448 212.472H398.264V215.388H394.196C393.944 217.008 393.512 218.088 392.9 218.628C392.144 219.276 390.596 219.6 388.256 219.672L385.592 219.708L384.404 216.612C385.88 216.756 387.14 216.828 388.22 216.828C389.516 216.792 390.272 216.396 390.56 215.64L390.632 215.388H368.996ZM390.92 212.472C390.956 211.644 390.992 210.708 391.064 209.664H383.396C384.008 210.564 384.548 211.5 385.052 212.472H390.92ZM379.76 209.664H374.324C374.072 210.6 373.82 211.536 373.532 212.472H381.452C380.876 211.428 380.336 210.492 379.76 209.664ZM374.9 206.892H381.992C381.416 205.812 380.84 204.84 380.228 203.976H375.296C375.188 204.984 375.044 205.956 374.9 206.892ZM385.52 206.892H391.136L391.208 203.976H383.936C384.512 204.912 385.016 205.884 385.52 206.892Z" fill="url(#paint10_linear_5_9)"/>
<path d="M408.668 187.56H429.368V200.412H408.668V187.56ZM425.588 196.884V191.088H412.448V196.884H425.588ZM417.38 202.788V219.204H413.744V217.512H407.48V219.204H403.808V202.788H417.38ZM407.48 214.02H413.744V206.316H407.48V214.02ZM434.192 202.788V219.204H430.448V217.512H423.86V219.204H420.188V202.788H434.192ZM423.86 214.02H430.448V206.316H423.86V214.02Z" fill="url(#paint11_linear_5_9)"/>
<path d="M439.304 189.324H454.928V192.996H449.816V199.584H453.452V201.528C455.684 197.316 457.196 192.276 458.024 186.372L461.732 186.804C461.444 188.568 461.12 190.26 460.724 191.844H471.128V195.516H468.824C468.536 201.096 467.24 205.848 464.9 209.808C466.916 212.688 469.292 214.956 472.028 216.576L469.868 219.78C467.096 218.088 464.684 215.784 462.668 212.904C460.22 215.748 457.124 218.052 453.344 219.816L451.04 216.72C455.108 214.992 458.312 212.652 460.616 209.664C459.284 207.288 458.132 204.624 457.196 201.672C456.476 203.04 455.72 204.336 454.928 205.56L453.056 203.112H449.816V210.996C451.472 210.492 453.092 209.988 454.604 209.484V212.94C450.176 214.524 445.064 216 439.268 217.332L438.26 213.876L440.312 213.444V197.172H443.804V212.616C444.632 212.4 445.424 212.22 446.18 212.004V192.996H439.304V189.324ZM462.704 206.244C464.216 203.076 465.044 199.512 465.188 195.516H459.68C459.5 196.092 459.32 196.632 459.14 197.136C460.112 200.556 461.3 203.58 462.704 206.244Z" fill="url(#paint12_linear_5_9)"/>
<path d="M474.908 196.812H489.092V194.796H492.512L490.46 193.464C492.008 191.16 493.088 188.748 493.736 186.156L497.336 186.948C497.12 187.668 496.904 188.388 496.688 189.036H506.84V192.348H500.936C501.584 193.356 502.124 194.328 502.556 195.228L499.28 196.488C498.632 195.048 497.912 193.68 497.12 192.348H495.392C494.852 193.5 494.276 194.544 493.628 195.516L492.908 195.048V196.812H507.092V200.196H492.908V201.996H504.716V209.052C504.716 211.14 503.564 212.184 501.296 212.184H499.1C501.692 213.588 504.644 214.776 507.92 215.784L505.94 219.204C500.9 217.332 496.58 214.776 492.908 211.608V219.888H489.092V211.752C485.564 214.992 481.568 217.548 477.14 219.384L474.908 216.036C480.416 214.128 485.132 211.464 489.092 208.008V205.272H481.604V212.04H477.896V201.996H489.092V200.196H474.908V196.812ZM492.908 208.08C494.636 209.52 496.58 210.852 498.812 212.04L497.912 208.872L500.252 209.052C500.72 209.052 500.972 208.764 500.972 208.26V205.272H492.908V208.08ZM480.236 192.348C479.48 193.572 478.652 194.724 477.752 195.804L474.512 193.752C476.672 191.376 478.22 188.82 479.12 186.12L482.72 186.912C482.468 187.632 482.18 188.352 481.892 189.036H490.244V192.348H485.276C485.924 193.356 486.5 194.328 486.968 195.264L483.584 196.524C482.936 195.084 482.216 193.68 481.424 192.348H480.236Z" fill="url(#paint13_linear_5_9)"/>
<path d="M513.968 190.8H525.416V186.48H529.196V190.8H540.392V204.444H529.016C528.656 207.396 527.828 209.88 526.532 211.932C531.356 214.272 536.972 215.568 543.38 215.856L542.408 219.636C535.424 219.276 529.268 217.656 524.012 214.848C521.42 217.044 517.82 218.736 513.176 219.888L511.016 216.504C514.94 215.568 518.072 214.308 520.376 212.652C518.18 211.14 516.164 209.412 514.328 207.468L517.388 205.344C519.116 207.144 521.06 208.692 523.148 210.06C524.192 208.548 524.876 206.676 525.2 204.444H513.968V190.8ZM536.684 200.844V194.4H529.196V200.844H536.684ZM525.416 200.844V194.4H517.64V200.844H525.416Z" fill="url(#paint14_linear_5_9)"/>
</g>
<defs>
<linearGradient id="paint0_linear_5_9" x1="730" y1="155" x2="0" y2="155" gradientUnits="userSpaceOnUse">
<stop stop-color="#33312F"/>
<stop offset="1" stop-color="#F9EFE6"/>
</linearGradient>
<linearGradient id="paint1_linear_5_9" x1="-6.15876e-06" y1="126.5" x2="730" y2="126.5" gradientUnits="userSpaceOnUse">
<stop offset="0.253425" stop-color="#33312F"/>
<stop offset="0.747945" stop-color="#F9EFE6"/>
</linearGradient>
<linearGradient id="paint2_linear_5_9" x1="-6.15876e-06" y1="126.5" x2="730" y2="126.5" gradientUnits="userSpaceOnUse">
<stop offset="0.253425" stop-color="#33312F"/>
<stop offset="0.747945" stop-color="#F9EFE6"/>
</linearGradient>
<linearGradient id="paint3_linear_5_9" x1="-6.15876e-06" y1="126.5" x2="730" y2="126.5" gradientUnits="userSpaceOnUse">
<stop offset="0.253425" stop-color="#33312F"/>
<stop offset="0.747945" stop-color="#F9EFE6"/>
</linearGradient>
<linearGradient id="paint4_linear_5_9" x1="-6.15876e-06" y1="126.5" x2="730" y2="126.5" gradientUnits="userSpaceOnUse">
<stop offset="0.253425" stop-color="#33312F"/>
<stop offset="0.747945" stop-color="#F9EFE6"/>
</linearGradient>
<linearGradient id="paint5_linear_5_9" x1="4.64786e-06" y1="203.5" x2="730" y2="203.5" gradientUnits="userSpaceOnUse">
<stop offset="0.19863" stop-color="#33312F"/>
<stop offset="0.79863" stop-color="#F9EFE6"/>
</linearGradient>
<linearGradient id="paint6_linear_5_9" x1="4.64786e-06" y1="203.5" x2="730" y2="203.5" gradientUnits="userSpaceOnUse">
<stop offset="0.19863" stop-color="#33312F"/>
<stop offset="0.79863" stop-color="#F9EFE6"/>
</linearGradient>
<linearGradient id="paint7_linear_5_9" x1="4.64786e-06" y1="203.5" x2="730" y2="203.5" gradientUnits="userSpaceOnUse">
<stop offset="0.19863" stop-color="#33312F"/>
<stop offset="0.79863" stop-color="#F9EFE6"/>
</linearGradient>
<linearGradient id="paint8_linear_5_9" x1="4.64786e-06" y1="203.5" x2="730" y2="203.5" gradientUnits="userSpaceOnUse">
<stop offset="0.19863" stop-color="#33312F"/>
<stop offset="0.79863" stop-color="#F9EFE6"/>
</linearGradient>
<linearGradient id="paint9_linear_5_9" x1="4.64786e-06" y1="203.5" x2="730" y2="203.5" gradientUnits="userSpaceOnUse">
<stop offset="0.19863" stop-color="#33312F"/>
<stop offset="0.79863" stop-color="#F9EFE6"/>
</linearGradient>
<linearGradient id="paint10_linear_5_9" x1="4.64786e-06" y1="203.5" x2="730" y2="203.5" gradientUnits="userSpaceOnUse">
<stop offset="0.19863" stop-color="#33312F"/>
<stop offset="0.79863" stop-color="#F9EFE6"/>
</linearGradient>
<linearGradient id="paint11_linear_5_9" x1="4.64786e-06" y1="203.5" x2="730" y2="203.5" gradientUnits="userSpaceOnUse">
<stop offset="0.19863" stop-color="#33312F"/>
<stop offset="0.79863" stop-color="#F9EFE6"/>
</linearGradient>
<linearGradient id="paint12_linear_5_9" x1="4.64786e-06" y1="203.5" x2="730" y2="203.5" gradientUnits="userSpaceOnUse">
<stop offset="0.19863" stop-color="#33312F"/>
<stop offset="0.79863" stop-color="#F9EFE6"/>
</linearGradient>
<linearGradient id="paint13_linear_5_9" x1="4.64786e-06" y1="203.5" x2="730" y2="203.5" gradientUnits="userSpaceOnUse">
<stop offset="0.19863" stop-color="#33312F"/>
<stop offset="0.79863" stop-color="#F9EFE6"/>
</linearGradient>
<linearGradient id="paint14_linear_5_9" x1="4.64786e-06" y1="203.5" x2="730" y2="203.5" gradientUnits="userSpaceOnUse">
<stop offset="0.19863" stop-color="#33312F"/>
<stop offset="0.79863" stop-color="#F9EFE6"/>
</linearGradient>
<clipPath id="clip0_5_9">
<rect width="730" height="310" fill="white"/>
</clipPath>
</defs>
</svg>
