<svg width="730" height="310" viewBox="0 0 730 411" fill="none" xmlns="http://www.w3.org/2000/svg">
<g filter="url(#filter0_f_1_17)">
<path d="M380.229 150.491C380.584 153.477 380.051 155.385 379.358 156.511C385.077 158.092 390.291 162.083 392.726 167.293C394.488 171.617 394.587 176.773 393.267 181.481C400.263 184.888 405.393 192.509 405.393 200.643C405.393 211.148 397.718 218.704 386.864 219.339V219.384H343.469V219.373C330.024 219.048 323.654 210.016 323.654 199.497C323.654 192.458 329.711 184.058 336.476 181.179C336.47 180.558 336.532 180.087 336.634 179.734C334.015 174.428 336.693 169.065 338.376 167.033L339.016 166.203L339.044 166.167C341.383 163.11 342.795 161.267 352.841 156.912C363.796 152.162 367.692 147.496 369.188 145.605C369.6 145.086 369.978 144.409 370.372 143.714V143.709C371.404 141.868 372.523 139.876 374.538 140.195C377.32 140.635 379.502 144.329 380.232 150.488M349.303 199.723C350.963 199.723 352.607 199.395 354.141 198.759C355.675 198.123 357.068 197.191 358.242 196.015C359.416 194.84 360.347 193.444 360.982 191.908C361.618 190.373 361.945 188.726 361.945 187.064C361.945 185.402 361.618 183.756 360.982 182.22C360.347 180.684 359.416 179.289 358.242 178.113C357.068 176.938 355.675 176.005 354.141 175.369C352.607 174.733 350.963 174.405 349.303 174.405C345.951 174.405 342.735 175.739 340.365 178.113C337.994 180.487 336.662 183.707 336.662 187.064C336.662 190.421 337.994 193.641 340.365 196.015C342.735 198.389 345.951 199.723 349.303 199.723ZM392.664 187.064C392.664 185.402 392.337 183.756 391.702 182.22C391.067 180.684 390.136 179.289 388.962 178.113C387.788 176.938 386.394 176.005 384.861 175.369C383.327 174.733 381.683 174.405 380.023 174.405C378.363 174.405 376.719 174.733 375.185 175.369C373.652 176.005 372.258 176.938 371.084 178.113C369.91 179.289 368.979 180.684 368.344 182.22C367.709 183.756 367.382 185.402 367.382 187.064C367.382 190.421 368.714 193.641 371.084 196.015C373.455 198.389 376.67 199.723 380.023 199.723C383.376 199.723 386.591 198.389 388.962 196.015C391.332 193.641 392.664 190.421 392.664 187.064ZM351.882 194.154C353.739 194.154 355.519 193.416 356.832 192.101C358.145 190.787 358.882 189.004 358.882 187.145C358.882 185.286 358.145 183.503 356.832 182.188C355.519 180.874 353.739 180.135 351.882 180.135C350.026 180.135 348.245 180.874 346.933 182.188C345.62 183.503 344.882 185.286 344.882 187.145C344.882 189.004 345.62 190.787 346.933 192.101C348.245 193.416 350.026 194.154 351.882 194.154ZM377.281 194.154C379.137 194.154 380.917 193.416 382.23 192.101C383.543 190.787 384.28 189.004 384.28 187.145C384.28 185.286 383.543 183.503 382.23 182.188C380.917 180.874 379.137 180.135 377.281 180.135C375.424 180.135 373.644 180.874 372.331 182.188C371.018 183.503 370.281 185.286 370.281 187.145C370.281 189.004 371.018 190.787 372.331 192.101C373.644 193.416 375.424 194.154 377.281 194.154ZM364.743 213.759C370.896 213.759 375.885 209.412 375.885 202.7H353.602C353.602 209.593 358.591 213.759 364.743 213.759Z" fill="#1A73CC"/>
<path d="M291.801 116.537C282.253 126.097 274.679 137.447 269.511 149.938C264.344 162.43 261.684 175.818 261.684 189.339C261.684 202.86 264.344 216.249 269.511 228.74C274.679 241.232 282.253 252.582 291.801 262.142C293.139 263.529 293.879 265.386 293.862 267.315C293.845 269.243 293.073 271.087 291.711 272.451C290.35 273.814 288.508 274.587 286.582 274.604C284.657 274.621 282.802 273.88 281.417 272.54C270.505 261.614 261.85 248.643 255.945 234.367C250.039 220.092 247 204.791 247 189.339C247 173.887 250.039 158.587 255.945 144.311C261.85 130.035 270.505 117.064 281.417 106.138C282.802 104.799 284.657 104.058 286.582 104.074C288.508 104.091 290.35 104.865 291.711 106.228C293.073 107.591 293.845 109.436 293.862 111.364C293.879 113.292 293.139 115.15 291.801 116.537ZM322.968 147.746C311.954 158.778 305.767 173.74 305.767 189.339C305.767 204.939 311.954 219.9 322.968 230.932C323.65 231.616 324.192 232.428 324.562 233.321C324.931 234.214 325.121 235.172 325.121 236.139C325.121 237.106 324.931 238.063 324.562 238.957C324.192 239.85 323.65 240.662 322.968 241.345C322.285 242.029 321.474 242.571 320.582 242.941C319.69 243.311 318.734 243.502 317.768 243.502C316.803 243.502 315.847 243.311 314.954 242.941C314.062 242.571 313.252 242.029 312.569 241.345C305.748 234.516 300.337 226.409 296.645 217.485C292.953 208.562 291.053 198.998 291.053 189.339C291.053 179.68 292.953 170.116 296.645 161.193C300.337 152.27 305.748 144.162 312.569 137.333C313.948 135.952 315.818 135.177 317.768 135.177C319.718 135.177 321.589 135.952 322.968 137.333C324.347 138.714 325.121 140.587 325.121 142.54C325.121 144.492 324.347 146.365 322.968 147.746ZM406.04 137.333C406.722 136.648 407.532 136.105 408.424 135.734C409.317 135.364 410.273 135.173 411.239 135.173C412.205 135.173 413.161 135.364 414.054 135.734C414.946 136.105 415.756 136.648 416.438 137.333C423.26 144.162 428.671 152.27 432.363 161.193C436.054 170.116 437.955 179.68 437.955 189.339C437.955 198.998 436.054 208.562 432.363 217.485C428.671 226.409 423.26 234.516 416.438 241.345C415.756 242.029 414.945 242.571 414.053 242.941C413.161 243.311 412.205 243.502 411.239 243.502C410.273 243.502 409.317 243.311 408.425 242.941C407.533 242.571 406.723 242.029 406.04 241.345C405.357 240.662 404.815 239.85 404.446 238.957C404.076 238.063 403.886 237.106 403.886 236.139C403.886 235.172 404.076 234.214 404.446 233.321C404.815 232.428 405.357 231.616 406.04 230.932C417.054 219.9 423.241 204.939 423.241 189.339C423.241 173.74 417.054 158.778 406.04 147.746C405.356 147.063 404.813 146.252 404.443 145.358C404.073 144.465 403.882 143.507 403.882 142.54C403.882 141.572 404.073 140.615 404.443 139.721C404.813 138.828 405.356 138.016 406.04 137.333ZM437.206 106.153C438.584 104.774 440.451 104 442.398 104C444.346 104 446.213 104.774 447.59 106.153C469.623 128.218 482 158.144 482 189.347C482 220.55 469.623 250.475 447.59 272.54C446.205 273.88 444.35 274.621 442.425 274.604C440.499 274.587 438.657 273.814 437.296 272.451C435.934 271.087 435.162 269.243 435.145 267.315C435.129 265.386 435.869 263.529 437.206 262.142C446.755 252.582 454.329 241.232 459.496 228.74C464.663 216.249 467.323 202.86 467.323 189.339C467.323 175.818 464.663 162.43 459.496 149.938C454.329 137.447 446.755 126.097 437.206 116.537C435.83 115.158 435.056 113.287 435.056 111.338C435.056 109.388 435.83 107.517 437.206 106.138V106.153Z" fill="#1A73CC"/>
<path d="M371.847 299.646V217.828H357.16V299.646C357.16 301.597 357.934 303.467 359.311 304.846C360.688 306.225 362.556 307 364.504 307C366.451 307 368.319 306.225 369.696 304.846C371.074 303.467 371.847 301.597 371.847 299.646Z" fill="#1A73CC"/>
</g>
<path d="M380.229 150.491C380.584 153.477 380.051 155.385 379.358 156.511C385.077 158.092 390.291 162.083 392.726 167.293C394.488 171.617 394.587 176.773 393.267 181.481C400.263 184.888 405.393 192.509 405.393 200.643C405.393 211.148 397.718 218.704 386.864 219.339V219.384H343.469V219.373C330.024 219.048 323.654 210.016 323.654 199.497C323.654 192.458 329.711 184.058 336.476 181.179C336.47 180.558 336.532 180.087 336.634 179.734C334.015 174.428 336.693 169.065 338.376 167.033L339.016 166.203L339.044 166.167C341.383 163.11 342.795 161.267 352.841 156.912C363.796 152.162 367.692 147.496 369.188 145.605C369.6 145.086 369.978 144.409 370.372 143.714V143.709C371.404 141.868 372.523 139.876 374.538 140.195C377.32 140.635 379.502 144.329 380.232 150.488M349.303 199.723C350.963 199.723 352.607 199.395 354.141 198.759C355.675 198.123 357.068 197.191 358.242 196.015C359.416 194.84 360.347 193.444 360.982 191.908C361.618 190.373 361.945 188.726 361.945 187.064C361.945 185.402 361.618 183.756 360.982 182.22C360.347 180.684 359.416 179.289 358.242 178.113C357.068 176.938 355.675 176.005 354.141 175.369C352.607 174.733 350.963 174.405 349.303 174.405C345.951 174.405 342.735 175.739 340.365 178.113C337.994 180.487 336.662 183.707 336.662 187.064C336.662 190.421 337.994 193.641 340.365 196.015C342.735 198.389 345.951 199.723 349.303 199.723ZM392.664 187.064C392.664 185.402 392.337 183.756 391.702 182.22C391.067 180.684 390.136 179.289 388.962 178.113C387.788 176.938 386.394 176.005 384.861 175.369C383.327 174.733 381.683 174.405 380.023 174.405C378.363 174.405 376.719 174.733 375.185 175.369C373.652 176.005 372.258 176.938 371.084 178.113C369.91 179.289 368.979 180.684 368.344 182.22C367.709 183.756 367.382 185.402 367.382 187.064C367.382 190.421 368.714 193.641 371.084 196.015C373.455 198.389 376.67 199.723 380.023 199.723C383.376 199.723 386.591 198.389 388.962 196.015C391.332 193.641 392.664 190.421 392.664 187.064ZM351.882 194.154C353.739 194.154 355.519 193.416 356.832 192.101C358.145 190.787 358.882 189.004 358.882 187.145C358.882 185.286 358.145 183.503 356.832 182.188C355.519 180.874 353.739 180.135 351.882 180.135C350.026 180.135 348.245 180.874 346.933 182.188C345.62 183.503 344.882 185.286 344.882 187.145C344.882 189.004 345.62 190.787 346.933 192.101C348.245 193.416 350.026 194.154 351.882 194.154ZM377.281 194.154C379.137 194.154 380.917 193.416 382.23 192.101C383.543 190.787 384.28 189.004 384.28 187.145C384.28 185.286 383.543 183.503 382.23 182.188C380.917 180.874 379.137 180.135 377.281 180.135C375.424 180.135 373.644 180.874 372.331 182.188C371.018 183.503 370.281 185.286 370.281 187.145C370.281 189.004 371.018 190.787 372.331 192.101C373.644 193.416 375.424 194.154 377.281 194.154ZM364.743 213.759C370.896 213.759 375.885 209.412 375.885 202.7H353.602C353.602 209.593 358.591 213.759 364.743 213.759Z" fill="#1A73CC"/>
<path d="M291.801 116.537C282.253 126.097 274.679 137.447 269.511 149.938C264.344 162.43 261.684 175.818 261.684 189.339C261.684 202.86 264.344 216.249 269.511 228.74C274.679 241.232 282.253 252.582 291.801 262.142C293.139 263.529 293.879 265.386 293.862 267.315C293.845 269.243 293.073 271.087 291.711 272.451C290.35 273.814 288.508 274.587 286.582 274.604C284.657 274.621 282.802 273.88 281.417 272.54C270.505 261.614 261.85 248.643 255.945 234.367C250.039 220.092 247 204.791 247 189.339C247 173.887 250.039 158.587 255.945 144.311C261.85 130.035 270.505 117.064 281.417 106.138C282.802 104.799 284.657 104.058 286.582 104.074C288.508 104.091 290.35 104.865 291.711 106.228C293.073 107.591 293.845 109.436 293.862 111.364C293.879 113.292 293.139 115.15 291.801 116.537ZM322.968 147.746C311.954 158.778 305.767 173.74 305.767 189.339C305.767 204.939 311.954 219.9 322.968 230.932C323.65 231.616 324.192 232.428 324.562 233.321C324.931 234.214 325.121 235.172 325.121 236.139C325.121 237.106 324.931 238.063 324.562 238.957C324.192 239.85 323.65 240.662 322.968 241.345C322.285 242.029 321.474 242.571 320.582 242.941C319.69 243.311 318.734 243.502 317.768 243.502C316.803 243.502 315.847 243.311 314.954 242.941C314.062 242.571 313.252 242.029 312.569 241.345C305.748 234.516 300.337 226.409 296.645 217.485C292.953 208.562 291.053 198.998 291.053 189.339C291.053 179.68 292.953 170.116 296.645 161.193C300.337 152.27 305.748 144.162 312.569 137.333C313.948 135.952 315.818 135.177 317.768 135.177C319.718 135.177 321.589 135.952 322.968 137.333C324.347 138.714 325.121 140.587 325.121 142.54C325.121 144.492 324.347 146.365 322.968 147.746ZM406.04 137.333C406.722 136.648 407.532 136.105 408.424 135.734C409.317 135.364 410.273 135.173 411.239 135.173C412.205 135.173 413.161 135.364 414.054 135.734C414.946 136.105 415.756 136.648 416.438 137.333C423.26 144.162 428.671 152.27 432.363 161.193C436.054 170.116 437.955 179.68 437.955 189.339C437.955 198.998 436.054 208.562 432.363 217.485C428.671 226.409 423.26 234.516 416.438 241.345C415.756 242.029 414.945 242.571 414.053 242.941C413.161 243.311 412.205 243.502 411.239 243.502C410.273 243.502 409.317 243.311 408.425 242.941C407.533 242.571 406.723 242.029 406.04 241.345C405.357 240.662 404.815 239.85 404.446 238.957C404.076 238.063 403.886 237.106 403.886 236.139C403.886 235.172 404.076 234.214 404.446 233.321C404.815 232.428 405.357 231.616 406.04 230.932C417.054 219.9 423.241 204.939 423.241 189.339C423.241 173.74 417.054 158.778 406.04 147.746C405.356 147.063 404.813 146.252 404.443 145.358C404.073 144.465 403.882 143.507 403.882 142.54C403.882 141.572 404.073 140.615 404.443 139.721C404.813 138.828 405.356 138.016 406.04 137.333ZM437.206 106.153C438.584 104.774 440.451 104 442.398 104C444.346 104 446.213 104.774 447.59 106.153C469.623 128.218 482 158.144 482 189.347C482 220.55 469.623 250.475 447.59 272.54C446.205 273.88 444.35 274.621 442.425 274.604C440.499 274.587 438.657 273.814 437.296 272.451C435.934 271.087 435.162 269.243 435.145 267.315C435.129 265.386 435.869 263.529 437.206 262.142C446.755 252.582 454.329 241.232 459.496 228.74C464.663 216.249 467.323 202.86 467.323 189.339C467.323 175.818 464.663 162.43 459.496 149.938C454.329 137.447 446.755 126.097 437.206 116.537C435.83 115.158 435.056 113.287 435.056 111.338C435.056 109.388 435.83 107.517 437.206 106.138V106.153Z" fill="#1A73CC"/>
<path d="M371.847 299.646V217.828H357.16V299.646C357.16 301.597 357.934 303.467 359.311 304.846C360.688 306.225 362.556 307 364.504 307C366.451 307 368.319 306.225 369.696 304.846C371.074 303.467 371.847 301.597 371.847 299.646Z" fill="#1A73CC"/>
<path d="M31.6467 157.952H104.991V164.96H31.6467V157.952ZM28.2867 157.952H35.8707V185.504C35.8707 189.088 35.7107 192.928 35.3907 197.024C35.1347 201.12 34.5907 205.312 33.7587 209.6C32.9907 213.824 31.8387 217.92 30.3027 221.888C28.7667 225.792 26.7187 229.376 24.1587 232.64C23.7747 232.128 23.1987 231.52 22.4307 230.816C21.7267 230.176 20.9907 229.536 20.2227 228.896C19.5187 228.256 18.8787 227.776 18.3027 227.456C21.3107 223.424 23.5187 218.976 24.9267 214.112C26.3347 209.248 27.2307 204.352 27.6147 199.424C28.0627 194.432 28.2867 189.792 28.2867 185.504V157.952ZM59.5827 144.8L66.9747 143.264C67.9987 145.44 68.9907 147.84 69.9507 150.464C70.9747 153.024 71.7427 155.232 72.2547 157.088L64.4787 159.008C64.0307 157.088 63.3267 154.784 62.3667 152.096C61.4707 149.408 60.5427 146.976 59.5827 144.8Z" fill="#1A73CC"/>
<path d="M216.699 143.936L220.827 149.312C217.563 150.016 213.883 150.688 209.787 151.328C205.755 151.904 201.467 152.448 196.923 152.96C192.443 153.408 187.931 153.792 183.387 154.112C178.843 154.368 174.427 154.592 170.139 154.784C170.075 154.016 169.851 153.12 169.467 152.096C169.147 151.008 168.795 150.112 168.411 149.408C172.635 149.216 176.955 148.96 181.371 148.64C185.851 148.256 190.235 147.84 194.523 147.392C198.875 146.944 202.939 146.432 206.715 145.856C210.555 145.28 213.883 144.64 216.699 143.936ZM167.355 168.416H224.859V174.464H167.355V168.416ZM192.315 149.6H198.939V192.416H192.315V149.6ZM192.315 197.024H198.555V225.344H192.315V197.024ZM174.651 157.088L180.411 155.264C181.435 157.056 182.491 158.976 183.579 161.024C184.731 163.072 185.563 164.8 186.075 166.208L180.027 168.416C179.515 166.944 178.747 165.152 177.723 163.04C176.699 160.864 175.675 158.88 174.651 157.088ZM211.611 153.536L217.947 155.456C216.539 158.272 215.035 161.152 213.435 164.096C211.899 166.976 210.427 169.44 209.019 171.488L203.739 169.664C204.635 168.192 205.563 166.528 206.523 164.672C207.547 162.752 208.507 160.832 209.403 158.912C210.299 156.928 211.035 155.136 211.611 153.536ZM188.379 171.68L194.139 173.792C192.219 177.056 189.819 180.192 186.939 183.2C184.059 186.208 180.923 188.928 177.531 191.36C174.203 193.792 170.875 195.808 167.547 197.408C167.035 196.64 166.331 195.712 165.435 194.624C164.539 193.536 163.707 192.672 162.939 192.032C166.203 190.816 169.435 189.152 172.635 187.04C175.835 184.864 178.811 182.464 181.563 179.84C184.379 177.216 186.651 174.496 188.379 171.68ZM203.067 171.68C204.859 174.24 207.099 176.768 209.787 179.264C212.475 181.76 215.355 184.032 218.427 186.08C221.563 188.064 224.635 189.696 227.643 190.976C226.939 191.552 226.139 192.384 225.243 193.472C224.347 194.496 223.611 195.456 223.035 196.352C219.963 194.816 216.827 192.864 213.627 190.496C210.427 188.128 207.419 185.536 204.603 182.72C201.787 179.84 199.419 176.896 197.499 173.888L203.067 171.68ZM172.827 194.528H219.867V231.008H213.147V200.096H179.259V231.584H172.827V194.528ZM177.051 208.16H215.163V213.536H177.051V208.16ZM177.051 221.888H214.971V227.36H177.051V221.888ZM136.635 193.856C140.283 192.64 144.699 191.104 149.883 189.248C155.067 187.392 160.315 185.472 165.627 183.488L166.875 190.016C161.883 191.936 156.859 193.856 151.803 195.776C146.811 197.632 142.267 199.328 138.171 200.864L136.635 193.856ZM137.979 162.752H167.067V169.472H137.979V162.752ZM149.979 143.456H156.699V223.328C156.699 225.248 156.443 226.752 155.931 227.84C155.483 228.928 154.651 229.76 153.435 230.336C152.283 230.912 150.747 231.296 148.827 231.488C146.907 231.68 144.411 231.744 141.339 231.68C141.275 230.848 141.019 229.76 140.571 228.416C140.187 227.136 139.771 225.984 139.323 224.96C141.371 225.024 143.227 225.056 144.891 225.056C146.619 225.12 147.771 225.12 148.347 225.056C148.923 225.056 149.339 224.928 149.595 224.672C149.851 224.48 149.979 224.032 149.979 223.328V143.456Z" fill="#1A73CC"/>
<path d="M525.876 164.96L532.308 167.456C530.26 171.232 527.828 175.008 525.012 178.784C522.196 182.496 519.252 186.016 516.18 189.344C513.108 192.672 510.036 195.616 506.964 198.176C506.772 197.6 506.42 196.864 505.908 195.968C505.46 195.072 504.98 194.176 504.468 193.28C503.956 192.384 503.476 191.648 503.028 191.072C505.844 188.96 508.66 186.496 511.476 183.68C514.356 180.864 517.044 177.856 519.54 174.656C522.036 171.456 524.148 168.224 525.876 164.96ZM523.956 143.552L530.772 146.24C528.98 148.992 526.836 151.776 524.34 154.592C521.844 157.408 519.188 160.096 516.372 162.656C513.62 165.152 510.868 167.36 508.116 169.28C507.86 168.704 507.508 168.064 507.06 167.36C506.612 166.592 506.132 165.856 505.62 165.152C505.108 164.384 504.66 163.776 504.276 163.328C506.772 161.664 509.268 159.744 511.764 157.568C514.26 155.328 516.564 153.024 518.676 150.656C520.852 148.224 522.612 145.856 523.956 143.552ZM517.044 182.72L524.148 175.616L524.436 175.904V231.68H517.044V182.72ZM537.012 190.112H586.452V197.024H537.012V190.112ZM530.772 221.792H592.021V228.704H530.772V221.792ZM533.556 161.696H589.524V168.512H533.556V161.696ZM557.94 165.536H565.428V225.152H557.94V165.536ZM552.66 145.376L559.188 142.976C560.852 145.408 562.484 148.096 564.084 151.04C565.684 153.92 566.868 156.416 567.636 158.528L560.628 161.312C559.988 159.2 558.901 156.64 557.365 153.632C555.893 150.624 554.324 147.872 552.66 145.376Z" fill="#1A73CC"/>
<path d="M663.505 143.36H670.801V223.616C670.801 225.792 670.449 227.392 669.745 228.416C669.105 229.504 668.017 230.304 666.481 230.816C665.009 231.328 662.961 231.648 660.337 231.776C657.777 231.904 654.481 231.968 650.449 231.968C650.257 231.072 649.905 230.016 649.393 228.8C648.881 227.648 648.369 226.688 647.857 225.92C649.777 225.984 651.633 226.016 653.425 226.016C655.281 226.016 656.881 225.984 658.225 225.92C659.633 225.92 660.593 225.92 661.105 225.92C662.001 225.856 662.609 225.664 662.929 225.344C663.313 225.024 663.505 224.448 663.505 223.616V143.36ZM625.873 151.04H709.201V156.992H625.873V151.04ZM642.865 167.744V174.56H692.305V167.744H642.865ZM635.953 162.656H699.601V179.648H635.953V162.656ZM633.169 186.464H701.137V221.312H693.841V191.744H633.169V186.464ZM624.049 198.464H711.121V204.224H624.049V198.464ZM632.305 211.424H697.585V217.088H632.305V211.424Z" fill="#1A73CC"/>
<defs>
<filter id="filter0_f_1_17" x="143" y="0" width="443" height="411" filterUnits="userSpaceOnUse" color-interpolation-filters="sRGB">
<feFlood flood-opacity="0" result="BackgroundImageFix"/>
<feBlend mode="normal" in="SourceGraphic" in2="BackgroundImageFix" result="shape"/>
<feGaussianBlur stdDeviation="52" result="effect1_foregroundBlur_1_17"/>
</filter>
</defs>
</svg>
