<svg width="730" height="310" viewBox="0 0 730 310" fill="none" xmlns="http://www.w3.org/2000/svg">
<g clip-path="url(#clip0_4001_44)">
<rect width="730" height="310" fill="#F9EFE6"/>
<path d="M187.348 118.056H227.54L229.972 112.68C218.068 113.192 205.268 113.576 191.7 113.576L188.116 102.696C224.084 102.696 254.548 100.264 279.508 95.528L285.652 106.024C273.364 108.584 259.156 110.504 242.9 111.784C242.132 113.96 241.364 116.008 240.596 118.056H286.164V129.32H235.348C234.324 131.112 233.3 133.032 232.276 134.824H293.588V146.6H224.34C222.804 148.52 221.396 150.312 219.988 151.976H281.684V214.568H269.012V209.832H214.612V214.568H201.94V170.152C196.308 174.888 190.42 179.368 184.276 183.72L177.108 172.2C189.14 164.008 199.38 155.56 207.828 146.6H180.436V134.824H217.428C218.708 133.032 219.988 131.112 221.268 129.32H187.348V118.056ZM214.612 178.088V183.336H269.012V178.088H214.612ZM269.012 168.104V162.728H214.612V168.104H269.012ZM214.612 193.32V199.08H269.012V193.32H214.612Z" fill="#33312F"/>
<path d="M444.628 97.704C453.588 104.232 461.268 110.76 467.54 117.16L458.452 126.12C453.076 119.976 445.524 113.448 435.668 106.28L444.628 97.704ZM442.324 129.064C450.772 135.336 457.812 141.608 463.572 147.752L454.612 156.84C449.748 150.952 442.58 144.552 433.364 137.64L442.324 129.064ZM453.588 164.136L465.108 168.744C459.732 184.872 453.588 199.976 446.932 214.056L434.516 208.552C441.94 193.96 448.212 179.24 453.588 164.136ZM489.684 120.616H506.964C507.988 117.544 508.884 114.6 509.524 111.656H483.412V143.656C482.9 173.096 478.036 196.648 468.692 214.568L458.58 205.608C466.26 190.76 470.228 170.024 470.612 143.656V99.88H549.332V111.656H522.068C521.3 114.728 520.532 117.672 519.508 120.616H543.06V168.104H522.964V201.256C522.964 209.704 518.996 213.928 511.06 213.928H500.308L497.492 201.896C500.564 202.408 503.636 202.664 506.708 202.664C509.012 202.664 510.292 201.128 510.292 198.056V168.104H489.684V120.616ZM531.412 157.608V149.16H501.332V157.608H531.412ZM501.332 139.56H531.412V130.856H501.332V139.56ZM491.22 175.4L502.996 177.96C499.924 189.48 495.7 199.336 490.068 207.784L479.316 201C484.948 193.064 488.916 184.488 491.22 175.4ZM539.092 174.632C543.828 183.336 547.924 192.68 551.508 202.664L540.244 207.656C536.532 196.648 532.436 186.92 528.084 178.472L539.092 174.632Z" fill="#33312F"/>
<path d="M347.333 180.5L320.833 154L347.333 127.5L353.627 133.794L333.31 154.11L353.517 174.317L347.333 180.5ZM382.667 180.5L376.373 174.206L396.69 153.89L376.483 133.683L382.667 127.5L409.167 154L382.667 180.5Z" fill="url(#paint0_linear_4001_44)"/>
<path d="M105.068 201.184C96.7475 201.184 89.9635 199.008 84.8435 194.4C79.7235 189.92 77.1635 183.776 77.1635 175.968C77.1635 169.568 78.8275 164.32 81.8995 160.224C83.0515 158.944 86.7635 155.488 92.9075 150.112C95.2115 148.32 96.8755 146.144 98.0275 143.84C99.3075 141.28 99.9475 138.464 99.9475 135.392V133.6H114.668V135.392C114.668 140.256 113.9 144.48 112.108 147.936C110.444 151.392 105.452 156.768 97.1315 164.192L95.5955 165.984C93.2915 168.8 92.1395 171.872 92.1395 175.072C92.1395 179.296 93.4195 182.624 95.7235 185.056C98.1555 187.488 101.612 188.64 105.964 188.64C111.468 188.64 115.436 186.976 117.996 183.52C120.172 180.576 121.196 176.352 121.196 170.848H135.788C135.788 180.32 133.1 187.744 127.468 193.12C121.964 198.496 114.54 201.184 105.068 201.184ZM107.372 127.328C104.556 127.328 102.124 126.432 100.204 124.64C98.4115 122.848 97.3875 120.544 97.3875 117.728C97.3875 114.912 98.4115 112.48 100.204 110.688C102.252 108.896 104.556 108 107.372 108C110.188 108 112.492 109.024 114.284 110.816C116.332 112.608 117.228 114.912 117.228 117.728C117.228 120.544 116.332 122.848 114.284 124.64C112.492 126.432 110.188 127.328 107.372 127.328Z" fill="url(#paint1_linear_4001_44)"/>
<path d="M624.933 98.816C633.253 98.816 640.037 100.992 645.157 105.6C650.277 110.08 652.837 116.224 652.837 124.032C652.837 130.432 651.173 135.68 648.101 139.776C646.949 141.056 643.237 144.512 637.093 149.888C634.789 151.68 633.125 153.856 631.973 156.16C630.693 158.72 630.053 161.536 630.053 164.608V166.4H615.333V164.608C615.333 159.744 616.101 155.52 617.893 152.064C619.557 148.608 624.549 143.232 632.869 135.808L634.405 134.016C636.709 131.2 637.861 128.128 637.861 124.928C637.861 120.704 636.581 117.376 634.277 114.944C631.845 112.512 628.389 111.36 624.037 111.36C618.533 111.36 614.565 113.024 612.005 116.48C609.829 119.424 608.805 123.648 608.805 129.152H594.213C594.213 119.68 596.901 112.256 602.533 106.88C608.037 101.504 615.461 98.816 624.933 98.816ZM622.629 172.672C625.445 172.672 627.877 173.568 629.797 175.36C631.589 177.152 632.613 179.456 632.613 182.272C632.613 185.088 631.589 187.52 629.797 189.312C627.749 191.104 625.445 192 622.629 192C619.813 192 617.509 190.976 615.717 189.184C613.669 187.392 612.773 185.088 612.773 182.272C612.773 179.456 613.669 177.152 615.717 175.36C617.509 173.568 619.813 172.672 622.629 172.672Z" fill="url(#paint2_linear_4001_44)"/>
</g>
<defs>
<linearGradient id="paint0_linear_4001_44" x1="365" y1="127.5" x2="365" y2="180.5" gradientUnits="userSpaceOnUse">
<stop stop-color="#99938D"/>
<stop offset="1" stop-color="#E6DDD4"/>
</linearGradient>
<linearGradient id="paint1_linear_4001_44" x1="106.5" y1="210" x2="106.5" y2="99" gradientUnits="userSpaceOnUse">
<stop stop-color="#E6DDD4"/>
<stop offset="1" stop-color="#99938D"/>
</linearGradient>
<linearGradient id="paint2_linear_4001_44" x1="623.5" y1="90" x2="623.5" y2="201" gradientUnits="userSpaceOnUse">
<stop stop-color="#99938D"/>
<stop offset="1" stop-color="#E6DDD4"/>
</linearGradient>
</defs>
</svg>
