<svg width="730" height="310" viewBox="0 0 730 310" fill="none" xmlns="http://www.w3.org/2000/svg">
<g clip-path="url(#clip0_1_76)">
<rect width="730" height="310" fill="#F9EFE6"/>
<path d="M197.862 144.016C199.462 144.016 200.87 144.272 202.022 144.848V152.144C200.358 151.632 198.822 151.44 197.286 151.44C195.366 151.44 193.638 152.144 192.102 153.68C190.31 155.408 189.478 157.648 189.478 160.464V178H182.246V144.912H189.478V149.648C190.374 147.984 191.398 146.704 192.614 145.808C194.086 144.592 195.814 144.016 197.862 144.016Z" fill="#33312F"/>
<path d="M220.264 144.016C225.704 144.016 229.864 145.808 232.744 149.52C235.368 152.848 236.712 157.52 236.712 163.472H211.944C212.2 166.544 213.032 168.912 214.44 170.512C215.848 172.112 217.896 172.944 220.52 172.944C222.76 172.944 224.552 172.432 225.96 171.408C227.048 170.576 228.008 169.232 228.904 167.376H236.2C235.432 170.448 233.896 173.072 231.592 175.12C228.648 177.616 225 178.896 220.584 178.896C215.656 178.896 211.752 177.36 208.872 174.352C205.8 171.216 204.264 166.928 204.264 161.424C204.264 156.496 205.672 152.4 208.616 149.072C211.432 145.68 215.336 144.016 220.264 144.016ZM220.456 149.968C218.024 149.968 216.168 150.608 214.76 152.016C213.416 153.36 212.52 155.344 212.072 157.968H229.096C228.456 152.592 225.576 149.968 220.456 149.968Z" fill="#33312F"/>
<path d="M258.752 144.016C263.616 144.016 267.072 145.808 269.184 149.392C270.72 147.344 272.32 145.936 273.984 145.168C275.456 144.4 277.312 144.016 279.552 144.016C282.944 144.016 285.76 145.104 288.064 147.408C290.24 149.712 291.392 152.656 291.392 156.304V178H284.096V157.584C284.096 154.96 283.52 153.04 282.432 151.888C281.28 150.672 279.488 150.096 276.928 150.096C275.136 150.096 273.664 150.736 272.448 152.144C271.168 153.488 270.592 155.344 270.592 157.776V178H263.296V157.648C263.296 152.592 261.12 150.096 256.768 150.096C254.656 150.096 252.992 150.864 251.712 152.528C250.432 154.064 249.792 155.984 249.792 158.16V178H242.496V144.912H249.792V148.304C252.544 145.424 255.552 144.016 258.752 144.016Z" fill="#33312F"/>
<path d="M314.419 144.016C319.411 144.016 323.443 145.616 326.515 148.944C329.523 152.208 331.059 156.368 331.059 161.488C331.059 166.544 329.523 170.704 326.579 173.904C323.507 177.232 319.411 178.896 314.419 178.896C309.363 178.896 305.331 177.232 302.259 173.904C299.251 170.704 297.779 166.544 297.779 161.488C297.779 156.368 299.251 152.208 302.323 148.944C305.331 145.616 309.363 144.016 314.419 144.016ZM314.419 149.968C311.347 149.968 309.043 151.12 307.379 153.552C305.971 155.6 305.267 158.288 305.267 161.488C305.267 164.688 305.971 167.312 307.379 169.36C309.043 171.728 311.347 172.944 314.419 172.944C317.427 172.944 319.795 171.728 321.459 169.36C322.867 167.248 323.635 164.624 323.635 161.488C323.635 158.288 322.867 155.6 321.459 153.552C319.795 151.12 317.427 149.968 314.419 149.968Z" fill="#33312F"/>
<path d="M333.914 144.912H341.85L349.786 168.912L357.722 144.912H365.658L353.434 178H346.138L333.914 144.912Z" fill="#33312F"/>
<path d="M383.889 144.016C389.329 144.016 393.489 145.808 396.369 149.52C398.993 152.848 400.337 157.52 400.337 163.472H375.569C375.825 166.544 376.657 168.912 378.065 170.512C379.473 172.112 381.521 172.944 384.145 172.944C386.385 172.944 388.177 172.432 389.585 171.408C390.673 170.576 391.633 169.232 392.529 167.376H399.825C399.057 170.448 397.521 173.072 395.217 175.12C392.273 177.616 388.625 178.896 384.209 178.896C379.281 178.896 375.377 177.36 372.497 174.352C369.425 171.216 367.889 166.928 367.889 161.424C367.889 156.496 369.297 152.4 372.241 149.072C375.057 145.68 378.961 144.016 383.889 144.016ZM384.081 149.968C381.649 149.968 379.793 150.608 378.385 152.016C377.041 153.36 376.145 155.344 375.697 157.968H392.721C392.081 152.592 389.201 149.968 384.081 149.968Z" fill="#33312F"/>
<path d="M428.522 143.248H437.674V128.848H450.41C451.114 127.504 451.69 126.16 452.074 124.752L458.794 125.648C458.41 126.8 457.898 127.824 457.258 128.848H475.306V143.248H483.114V149.392H475.306V155.664C475.306 159.632 473.066 161.616 468.65 161.616H464.106L462.442 155.664C464.042 155.792 465.514 155.92 466.794 155.92C468.074 155.92 468.714 155.024 468.714 153.296V149.392H451.562C455.338 151.44 458.602 153.616 461.354 155.984L457.45 160.72C454.89 158.032 451.626 155.6 447.594 153.296L450.922 149.392H443.562C442.474 154.64 439.786 159.056 435.498 162.64L430.378 158.032C433.706 155.6 435.946 152.72 436.97 149.392H428.522V143.248ZM468.714 143.248V134.864H453.994C457.13 136.464 459.818 138.192 462.122 140.048L459.498 143.248H468.714ZM452.586 134.864H444.138V143.248H457.002C454.954 141.456 452.522 139.792 449.706 138.256L452.586 134.864ZM478.25 163.152V177.296H484.778V183.248H426.73V177.296H432.81V163.152H478.25ZM439.274 177.296H445.674V169.168H439.274V177.296ZM452.138 177.296H458.73V169.168H452.138V177.296ZM465.194 177.296H471.786V169.168H465.194V177.296Z" fill="#33312F"/>
<path d="M490.986 135.952H516.138V125.392H523.05V135.952H548.138V142.48H523.05V153.168H539.69V184.4H533.162V180.752H506.09V184.4H499.498V153.168H516.138V142.48H490.986V135.952ZM506.09 174.416H533.162V159.376H506.09V174.416Z" fill="#33312F"/>
<rect x="405" y="123" width="16" height="64" fill="#CCC4BC"/>
</g>
<defs>
<clipPath id="clip0_1_76">
<rect width="730" height="310" fill="white"/>
</clipPath>
</defs>
</svg>
