<svg width="730" height="310" viewBox="0 0 730 310" fill="none" xmlns="http://www.w3.org/2000/svg">
<g clip-path="url(#clip0_4002_41)">
<rect width="730" height="310" fill="#F9EFE6"/>
<path d="M205.941 189V121.359H249.066V131.531H218.034V151.547H246.394V161.391H218.034V189H205.941Z" fill="#33312F"/>
<path d="M267.478 189V121.359H279.572V178.828H310.228V189H267.478Z" fill="#33312F"/>
<path d="M355.547 190.172C348.953 190.172 343.25 188.75 338.437 185.906C333.656 183.062 329.953 179.031 327.328 173.812C324.734 168.562 323.437 162.359 323.437 155.203V155.109C323.437 147.953 324.75 141.766 327.375 136.547C330 131.328 333.703 127.297 338.484 124.453C343.297 121.609 348.984 120.188 355.547 120.188C362.109 120.188 367.781 121.609 372.562 124.453C377.375 127.297 381.078 131.328 383.672 136.547C386.297 141.766 387.609 147.953 387.609 155.109V155.203C387.609 162.359 386.297 168.562 383.672 173.812C381.078 179.031 377.391 183.062 372.609 185.906C367.828 188.75 362.141 190.172 355.547 190.172ZM355.547 179.719C359.641 179.719 363.156 178.719 366.094 176.719C369.062 174.688 371.344 171.844 372.937 168.188C374.531 164.5 375.328 160.172 375.328 155.203V155.109C375.328 150.109 374.516 145.781 372.891 142.125C371.297 138.438 369.016 135.609 366.047 133.641C363.078 131.641 359.578 130.641 355.547 130.641C351.547 130.641 348.047 131.641 345.047 133.641C342.078 135.609 339.781 138.422 338.156 142.078C336.562 145.734 335.766 150.078 335.766 155.109V155.203C335.766 160.203 336.562 164.547 338.156 168.234C339.781 171.891 342.078 174.719 345.047 176.719C348.016 178.719 351.516 179.719 355.547 179.719Z" fill="#33312F"/>
<path d="M430.631 190.172C425.444 190.172 420.912 189.391 417.037 187.828C413.162 186.266 410.1 184.031 407.85 181.125C405.631 178.219 404.381 174.75 404.1 170.719L404.053 170.016H415.584L415.678 170.578C416.022 172.516 416.866 174.188 418.209 175.594C419.553 177 421.319 178.094 423.506 178.875C425.725 179.625 428.241 180 431.053 180C433.897 180 436.35 179.609 438.412 178.828C440.506 178.047 442.116 176.938 443.241 175.5C444.366 174.031 444.928 172.328 444.928 170.391V170.344C444.928 167.812 443.975 165.812 442.069 164.344C440.194 162.875 437.069 161.672 432.694 160.734L425.428 159.234C418.803 157.859 413.834 155.609 410.522 152.484C407.209 149.328 405.553 145.234 405.553 140.203V140.156C405.584 136.156 406.662 132.672 408.787 129.703C410.944 126.703 413.912 124.375 417.694 122.719C421.475 121.031 425.787 120.188 430.631 120.188C435.537 120.188 439.834 121 443.522 122.625C447.209 124.25 450.1 126.516 452.194 129.422C454.319 132.328 455.491 135.703 455.709 139.547L455.756 140.344H444.225L444.131 139.734C443.85 137.766 443.116 136.094 441.928 134.719C440.741 133.312 439.178 132.234 437.241 131.484C435.303 130.734 433.069 130.359 430.537 130.359C427.912 130.359 425.631 130.75 423.694 131.531C421.787 132.281 420.303 133.344 419.241 134.719C418.209 136.094 417.694 137.688 417.694 139.5V139.547C417.694 141.922 418.647 143.859 420.553 145.359C422.491 146.828 425.491 147.984 429.553 148.828L436.819 150.328C441.537 151.297 445.381 152.609 448.35 154.266C451.319 155.922 453.506 158 454.912 160.5C456.35 163 457.069 166 457.069 169.5V169.547C457.069 173.734 456.006 177.375 453.881 180.469C451.787 183.562 448.756 185.953 444.787 187.641C440.85 189.328 436.131 190.172 430.631 190.172Z" fill="#33312F"/>
<path d="M499.481 190.172C494.294 190.172 489.763 189.391 485.888 187.828C482.013 186.266 478.95 184.031 476.7 181.125C474.481 178.219 473.231 174.75 472.95 170.719L472.903 170.016H484.434L484.528 170.578C484.872 172.516 485.716 174.188 487.059 175.594C488.403 177 490.169 178.094 492.356 178.875C494.575 179.625 497.091 180 499.903 180C502.747 180 505.2 179.609 507.263 178.828C509.356 178.047 510.966 176.938 512.091 175.5C513.216 174.031 513.778 172.328 513.778 170.391V170.344C513.778 167.812 512.825 165.812 510.919 164.344C509.044 162.875 505.919 161.672 501.544 160.734L494.278 159.234C487.653 157.859 482.684 155.609 479.372 152.484C476.059 149.328 474.403 145.234 474.403 140.203V140.156C474.434 136.156 475.513 132.672 477.638 129.703C479.794 126.703 482.763 124.375 486.544 122.719C490.325 121.031 494.638 120.188 499.481 120.188C504.388 120.188 508.684 121 512.372 122.625C516.059 124.25 518.95 126.516 521.044 129.422C523.169 132.328 524.341 135.703 524.559 139.547L524.606 140.344H513.075L512.981 139.734C512.7 137.766 511.966 136.094 510.778 134.719C509.591 133.312 508.028 132.234 506.091 131.484C504.153 130.734 501.919 130.359 499.388 130.359C496.763 130.359 494.481 130.75 492.544 131.531C490.638 132.281 489.153 133.344 488.091 134.719C487.059 136.094 486.544 137.688 486.544 139.5V139.547C486.544 141.922 487.497 143.859 489.403 145.359C491.341 146.828 494.341 147.984 498.403 148.828L505.669 150.328C510.388 151.297 514.231 152.609 517.2 154.266C520.169 155.922 522.356 158 523.763 160.5C525.2 163 525.919 166 525.919 169.5V169.547C525.919 173.734 524.856 177.375 522.731 180.469C520.638 183.562 517.606 185.953 513.638 187.641C509.7 189.328 504.981 190.172 499.481 190.172Z" fill="#33312F"/>
<path d="M105.068 201.184C96.7475 201.184 89.9635 199.008 84.8435 194.4C79.7235 189.92 77.1635 183.776 77.1635 175.968C77.1635 169.568 78.8275 164.32 81.8995 160.224C83.0515 158.944 86.7635 155.488 92.9075 150.112C95.2115 148.32 96.8755 146.144 98.0275 143.84C99.3075 141.28 99.9475 138.464 99.9475 135.392V133.6H114.668V135.392C114.668 140.256 113.9 144.48 112.108 147.936C110.444 151.392 105.452 156.768 97.1315 164.192L95.5955 165.984C93.2915 168.8 92.1395 171.872 92.1395 175.072C92.1395 179.296 93.4195 182.624 95.7235 185.056C98.1555 187.488 101.612 188.64 105.964 188.64C111.468 188.64 115.436 186.976 117.996 183.52C120.172 180.576 121.196 176.352 121.196 170.848H135.788C135.788 180.32 133.1 187.744 127.468 193.12C121.964 198.496 114.54 201.184 105.068 201.184ZM107.372 127.328C104.556 127.328 102.124 126.432 100.204 124.64C98.4115 122.848 97.3875 120.544 97.3875 117.728C97.3875 114.912 98.4115 112.48 100.204 110.688C102.252 108.896 104.556 108 107.372 108C110.188 108 112.492 109.024 114.284 110.816C116.332 112.608 117.228 114.912 117.228 117.728C117.228 120.544 116.332 122.848 114.284 124.64C112.492 126.432 110.188 127.328 107.372 127.328Z" fill="url(#paint0_linear_4002_41)"/>
<path d="M624.933 98.816C633.253 98.816 640.037 100.992 645.157 105.6C650.277 110.08 652.837 116.224 652.837 124.032C652.837 130.432 651.173 135.68 648.101 139.776C646.949 141.056 643.237 144.512 637.093 149.888C634.789 151.68 633.125 153.856 631.973 156.16C630.693 158.72 630.053 161.536 630.053 164.608V166.4H615.333V164.608C615.333 159.744 616.101 155.52 617.893 152.064C619.557 148.608 624.549 143.232 632.869 135.808L634.405 134.016C636.709 131.2 637.861 128.128 637.861 124.928C637.861 120.704 636.581 117.376 634.277 114.944C631.845 112.512 628.389 111.36 624.037 111.36C618.533 111.36 614.565 113.024 612.005 116.48C609.829 119.424 608.805 123.648 608.805 129.152H594.213C594.213 119.68 596.901 112.256 602.533 106.88C608.037 101.504 615.461 98.816 624.933 98.816ZM622.629 172.672C625.445 172.672 627.877 173.568 629.797 175.36C631.589 177.152 632.613 179.456 632.613 182.272C632.613 185.088 631.589 187.52 629.797 189.312C627.749 191.104 625.445 192 622.629 192C619.813 192 617.509 190.976 615.717 189.184C613.669 187.392 612.773 185.088 612.773 182.272C612.773 179.456 613.669 177.152 615.717 175.36C617.509 173.568 619.813 172.672 622.629 172.672Z" fill="url(#paint1_linear_4002_41)"/>
</g>
<defs>
<linearGradient id="paint0_linear_4002_41" x1="106.5" y1="210" x2="106.5" y2="99" gradientUnits="userSpaceOnUse">
<stop stop-color="#E6DDD4"/>
<stop offset="1" stop-color="#99938D"/>
</linearGradient>
<linearGradient id="paint1_linear_4002_41" x1="623.5" y1="90" x2="623.5" y2="201" gradientUnits="userSpaceOnUse">
<stop stop-color="#99938D"/>
<stop offset="1" stop-color="#E6DDD4"/>
</linearGradient>
<clipPath id="clip0_4002_41">
<rect width="730" height="310" fill="white"/>
</clipPath>
</defs>
</svg>
