<svg width="730" height="311" viewBox="0 0 730 311" fill="none" xmlns="http://www.w3.org/2000/svg">
<path d="M0 0H730V310H0V0Z" fill="#272727"/>
<path d="M113.98 76.68H128.38C127.66 75 126.94 73.4 126.22 71.96L134.62 70.52C135.26 72.36 135.82 74.44 136.46 76.68H152.54V83.56H146.62C146.06 85.8 145.42 87.88 144.62 89.96H155.1V96.92H111.58V89.96H122.22C121.42 87.64 120.7 85.48 119.98 83.56H113.98V76.68ZM136.7 89.96C137.58 87.88 138.3 85.8 138.94 83.56H127.9C128.46 85.56 129.02 87.72 129.66 89.96H136.7ZM115.58 99.96H150.62V126.84H142.62V134.76C142.62 136.68 143.5 137.64 145.34 137.64H147.1C148.06 137.64 148.86 137.24 149.34 136.6C149.9 135.8 150.3 133.32 150.46 129.32L157.18 131.4C156.54 137.8 155.66 141.56 154.38 142.76C153.02 143.88 151.02 144.44 148.38 144.44H143.18C137.58 144.44 134.78 141.72 134.78 136.44V126.84H130.06C129.1 131.24 127.42 134.92 125.1 137.8C122.38 141.16 117.5 143.88 110.54 145.88L107.66 138.92C112.78 137.56 116.54 135.64 118.86 133.24C120.38 131.48 121.5 129.4 122.3 126.84H115.58V99.96ZM143.1 120.28V116.36H123.18V120.28H143.1ZM123.18 110.36H143.1V106.44H123.18V110.36ZM91.26 71.16L99.26 72.92C98.7 75.16 98.14 77.4 97.58 79.48H109.66V87.4H95.1C94.06 90.36 92.94 93.16 91.74 95.72H109.02V103.16H101.58V110.68H110.86V118.36H101.58V133.56C103.74 132.44 105.9 131.08 108.06 129.48L109.5 136.6C105.02 139.4 99.9 141.72 94.14 143.48L90.94 136.68C92.62 136.04 93.5 134.92 93.5 133.48V118.36H84.38V110.68H93.5V103.16H90.22V98.84C89.66 99.8 89.18 100.76 88.7 101.64L81.82 97.32C86.3 89.16 89.42 80.44 91.26 71.16Z" fill="#F2EDED"/>
<path d="M190.46 92.44L189.34 93.16L184.22 87C183.82 87.88 183.42 88.76 183.02 89.56V145.24H174.62V103.88C172.7 106.52 170.7 109.08 168.62 111.56L165.82 102.6C172.7 93.56 177.82 82.92 181.18 70.6L188.94 74.28C187.66 78.6 186.14 82.84 184.3 86.92C191.5 83.08 197.82 77.56 203.1 70.52L211.58 72.44L208.94 76.04H227.58V81.24C226.14 83.32 224.62 85.16 223.1 86.76H236.46V106.12H213.98C216.46 108.84 218.46 111.8 219.98 115C224.78 112.84 228.86 110.2 232.22 107.16L237.66 113.4C235.5 115.08 233.18 116.6 230.7 118.04C232.7 124.44 236.22 130.2 241.18 135.16L235.66 142.04C230.54 135.72 226.78 128.76 224.38 121.16C223.74 121.48 223.1 121.72 222.54 121.96C223.18 124.52 223.5 127.16 223.66 129.88C223.66 135.64 222.62 139.72 220.7 141.96C219.02 143.8 215.98 145 211.5 145.56C210.06 145.64 208.54 145.72 206.86 145.72L204.38 138.2C206.78 138.2 208.86 138.12 210.46 138.04C211.9 137.88 213.1 137.32 214.06 136.36C214.86 135.24 215.34 133.08 215.34 129.88V129.56C208.86 135.16 200.62 139.8 190.54 143.56L186.3 136.44C198.14 132.68 207.5 127.88 214.22 122.04C213.9 120.92 213.5 119.88 213.1 118.92C207.42 123.88 199.9 127.96 190.62 131.16L186.62 124.36C196.62 121.48 204.46 117.8 210.14 113.32C209.5 112.36 208.86 111.56 208.22 110.76C203.5 114.76 197.34 117.64 189.74 119.24L186.7 112.44C193.02 111.16 198.14 109 201.98 106.12H190.46V92.44ZM212.94 86.76C214.54 85.4 216.14 83.88 217.82 82.28H203.34C201.74 83.88 200.14 85.32 198.46 86.76H212.94ZM228.38 99.4V93.48H218.06C217.58 95.56 217.02 97.56 216.3 99.4H228.38ZM207.82 99.4C208.78 97.56 209.58 95.56 210.14 93.48H198.54V99.4H207.82Z" fill="#F2EDED"/>
<path d="M296.3 70.6C297.1 72.36 297.82 74.28 298.54 76.44H322.14V83.88H271.1V104.04C270.78 121.32 267.02 135.16 259.82 145.64L253.58 140.04C258.22 133.56 261.18 125.16 262.46 114.92C259.5 117.4 256.38 119.72 253.02 121.96L250.46 113.56C255.1 111.16 259.34 108.44 263.18 105.56C263.18 105 263.26 104.52 263.26 104.04V76.44H290.06C289.34 74.84 288.62 73.4 287.9 72.04L296.3 70.6ZM256.7 83.48C259.02 88.44 261.02 93.64 262.78 99.24L256.06 102.04C254.22 96.04 252.22 90.76 250.06 86.28L256.7 83.48ZM287.58 85.16L291.74 90.76C288.86 92.04 285.34 93.32 281.26 94.6V98.52H290.3V104.76H281.26V109H293.34V85.64H300.7V109H312.54V104.92H303.82V98.84H312.54V94.36H303.02V87.88H319.74V115.48H300.7V118.76H318.54V125.32C316.14 129.08 312.38 132.36 307.26 135.16C312.22 136.44 317.74 137.48 323.9 138.28L321.1 145.24C311.82 143.8 303.9 141.88 297.26 139.48C290.54 141.8 282.62 143.72 273.34 145.24L269.66 138.68C276.46 137.72 282.46 136.6 287.74 135.32C282.7 132.6 278.7 129.4 275.74 125.8H273.5V118.76H293.34V115.48H274.22V89.88C278.78 88.92 283.26 87.32 287.58 85.16ZM285.18 125.8C288.46 128.2 292.54 130.36 297.5 132.2C302.22 130.28 305.98 128.2 308.7 125.8H285.18Z" fill="#F2EDED"/>
<path d="M364.86 70.52L373.66 71.72C373.18 73.64 372.54 75.48 371.74 77.24H394.06V110.36C397.1 106.6 399.42 102.68 401.02 98.52L408.14 103C404.3 109.96 399.66 116.04 394.06 121.24V137.56C394.06 142.84 391.58 145.48 386.62 145.48H378.06L375.98 137.56L383.98 137.96C385.18 137.96 385.82 137.16 385.82 135.72V127.88C384.62 128.68 383.42 129.4 382.22 130.2C371.02 136.84 357.58 141.48 341.9 144.2L338.14 136.68C357.34 133.32 371.42 128.68 380.54 122.6H337.66V114.92H346.62V77.24H362.86C363.66 75.08 364.38 72.84 364.86 70.52ZM354.94 114.92H385.82V109.08H354.94V114.92ZM354.94 102.04H385.82V96.92H354.94V102.04ZM354.94 89.96H385.82V84.6H354.94V89.96Z" fill="#F2EDED"/>
<path d="M196.581 193.903H149.613C147.626 193.903 146 195.529 146 197.516V244.484C146 246.471 147.626 248.097 149.613 248.097H196.581C198.568 248.097 200.194 246.471 200.194 244.484V197.516C200.194 195.529 198.568 193.903 196.581 193.903Z" fill="#427687"/>
<path d="M193.735 193.903H149.387C147.535 193.903 146 195.439 146 197.29V241.503C146 243.4 147.535 244.89 149.387 244.89H193.69C195.587 244.89 197.077 243.355 197.077 241.503V197.29C197.168 195.439 195.587 193.903 193.735 193.903Z" fill="#8CAFBF"/>
<path d="M185.29 228.497L174.452 239.335C173.729 240.148 172.465 240.148 171.742 239.335L160.903 228.497C159.865 227.323 160.723 225.516 162.258 225.516H168.581C169.077 225.516 169.484 225.11 169.484 224.613V203.839C169.484 202.845 170.297 202.032 171.29 202.032H174.903C175.897 202.032 176.71 202.845 176.71 203.839V224.613C176.71 225.11 177.116 225.516 177.613 225.516H183.935C185.471 225.516 186.329 227.368 185.29 228.497Z" fill="#FAFAFA"/>
<path d="M162.123 197.923C162.123 196.884 161.4 196.568 157.245 196.703C153.768 196.839 152.052 197.245 151.013 198.51C149.974 199.774 149.703 202.348 149.658 205.419C149.658 207.587 149.658 209.619 150.787 209.619C152.323 209.619 152.323 206.052 153.587 204.065C156.026 200.135 162.123 199.277 162.123 197.923Z" fill="#B4E1ED"/>
<path d="M268.581 193.903H221.613C219.626 193.903 218 195.529 218 197.516V244.484C218 246.471 219.626 248.097 221.613 248.097H268.581C270.568 248.097 272.194 246.471 272.194 244.484V197.516C272.194 195.529 270.568 193.903 268.581 193.903Z" fill="#427687"/>
<path d="M265.735 193.903H221.387C219.535 193.903 218 195.439 218 197.29V241.503C218 243.4 219.535 244.89 221.387 244.89H265.69C267.587 244.89 269.077 243.355 269.077 241.503V197.29C269.168 195.439 267.587 193.903 265.735 193.903Z" fill="#8CAFBF"/>
<path d="M257.29 228.497L246.452 239.335C245.729 240.148 244.465 240.148 243.742 239.335L232.903 228.497C231.865 227.323 232.723 225.516 234.258 225.516H240.581C241.077 225.516 241.484 225.11 241.484 224.613V203.839C241.484 202.845 242.297 202.032 243.29 202.032H246.903C247.897 202.032 248.71 202.845 248.71 203.839V224.613C248.71 225.11 249.116 225.516 249.613 225.516H255.935C257.471 225.516 258.329 227.368 257.29 228.497Z" fill="#FAFAFA"/>
<path d="M234.123 197.923C234.123 196.884 233.4 196.568 229.245 196.703C225.768 196.839 224.052 197.245 223.013 198.51C221.974 199.774 221.703 202.348 221.658 205.419C221.658 207.587 221.658 209.619 222.787 209.619C224.323 209.619 224.323 206.052 225.587 204.065C228.026 200.135 234.123 199.277 234.123 197.923Z" fill="#B4E1ED"/>
<path d="M340.581 193.903H293.613C291.626 193.903 290 195.529 290 197.516V244.484C290 246.471 291.626 248.097 293.613 248.097H340.581C342.568 248.097 344.194 246.471 344.194 244.484V197.516C344.194 195.529 342.568 193.903 340.581 193.903Z" fill="#427687"/>
<path d="M337.735 193.903H293.387C291.535 193.903 290 195.439 290 197.29V241.503C290 243.4 291.535 244.89 293.387 244.89H337.69C339.587 244.89 341.077 243.355 341.077 241.503V197.29C341.168 195.439 339.587 193.903 337.735 193.903Z" fill="#8CAFBF"/>
<path d="M329.29 228.497L318.452 239.335C317.729 240.148 316.465 240.148 315.742 239.335L304.903 228.497C303.865 227.323 304.723 225.516 306.258 225.516H312.581C313.077 225.516 313.484 225.11 313.484 224.613V203.839C313.484 202.845 314.297 202.032 315.29 202.032H318.903C319.897 202.032 320.71 202.845 320.71 203.839V224.613C320.71 225.11 321.116 225.516 321.613 225.516H327.935C329.471 225.516 330.329 227.368 329.29 228.497Z" fill="#FAFAFA"/>
<path d="M306.123 197.923C306.123 196.884 305.4 196.568 301.245 196.703C297.768 196.839 296.052 197.245 295.013 198.51C293.974 199.774 293.703 202.348 293.658 205.419C293.658 207.587 293.658 209.619 294.787 209.619C296.323 209.619 296.323 206.052 297.587 204.065C300.026 200.135 306.123 199.277 306.123 197.923Z" fill="#B4E1ED"/>
<path d="M479.051 78.1078C479.051 78.1078 459.572 84.0058 460.85 105.399C460.85 105.399 459.053 111.382 469.194 116.037C469.194 116.037 460.971 121.481 458.423 127.606C458.423 127.606 455.18 139.165 465.488 149.92L463.288 150.961C463.288 150.961 448.464 155.072 452.286 168.917C452.286 168.917 455.529 179.523 469.194 184.381C469.194 184.381 450.145 187.707 457.729 201.568L467.341 216.528L487.443 202.03L505.408 188.77L528.983 171.808L531.454 164.638V148.679L522.961 137.883L501.882 115.528L500.415 111.056L490.068 102.935C490.068 102.935 486.207 98.4121 487.803 92.2443L482.553 88.1836L479.053 78.1078H479.051Z" fill="#E0A98A"/>
<path d="M522.599 153.819C522.154 149.792 519.254 145.673 519.254 145.673L507.878 144.927C497.223 149.861 503.451 158.856 503.451 158.856C503.4 159.627 504.275 159.73 504.275 159.73L520.065 164.638C522.754 160.559 522.599 153.819 522.599 153.819ZM501.641 169.727C501.641 169.727 496.051 173.08 499.68 180.675L508.675 186.572L514.544 182.139L518.636 169.65C518.636 169.65 508.699 167.992 501.641 169.727Z" fill="#EBA998"/>
<path d="M514.827 145.339C514.827 145.339 517.864 156.132 516.937 160.706L502.833 156.903L504.274 159.73L520.064 164.639C520.064 164.639 522.96 159.05 522.96 155.426C522.96 155.426 522.535 148.255 519.254 145.673L514.827 145.339Z" fill="#D88B7C"/>
<path d="M499.873 171.346L516.397 176.01L518.25 169.727C518.25 169.727 509.625 168.416 501.641 169.727L499.873 171.346Z" fill="#F9C8C0"/>
<path d="M476.84 111.571C476.84 111.571 475.552 118.258 479.052 120.953L491.252 127.606C491.252 127.606 493.622 116.427 492.23 111.249C492.23 111.249 483.943 108.182 479.361 108.488C479.361 108.488 477.202 110.467 476.84 111.571Z" fill="#EBA998"/>
<path d="M476.478 112.675L492.384 122.415C492.384 122.415 491.608 127.279 491.251 127.606L478.434 120.615C478.434 120.615 475.602 114.602 476.478 112.675Z" fill="#D88B7C"/>
<path d="M557.783 139.89C557.783 139.89 559.113 144.352 558.717 147.523L533.47 180.675L507.76 218.494C507.76 218.494 494.732 227.52 484.962 224.361L478.508 221.493L467.058 216.884L473.441 211.898L498.973 193.343L522.602 176.399L538.299 164.869L546.432 156.157L557.783 139.89Z" fill="#BA1921"/>
<path d="M553.348 153.964L525.739 182.139L532.534 179.518C532.534 179.518 510.896 221.866 484.962 224.361C484.962 224.361 492.865 231.027 512.896 237.474C512.896 237.474 540.534 246.248 551.536 247.982L554.2 217.915L559.18 148.679L553.348 153.964Z" fill="#930910"/>
<path d="M546.278 165.762L534.049 196.87C537.639 205.426 527.447 204.733 527.447 204.733C538.449 215.256 516.561 213.749 516.561 213.749C532.891 221.608 522.352 227.63 522.352 227.63C522.005 235.608 511.35 229.133 511.35 229.133L517.604 234.578C524.438 240.255 484.962 224.361 484.962 224.361L499.422 232.487C504.433 235.888 529.997 242.024 529.997 242.024C526.567 237.228 536.251 208.434 536.251 208.434L553.859 158.086L554.201 154.989L546.279 165.763L546.278 165.762Z" fill="#AF0E0F"/>
<path d="M479.051 109.206C479.051 109.206 489.243 112.598 490.917 114.063L492.384 114.654L492.23 111.249C492.23 111.249 479.515 106.79 479.051 109.206Z" fill="#F9C8C0"/>
<path d="M458.177 194.012C451.921 204.908 469.375 213.749 469.375 213.749L489.296 200.643L488.98 200.098C467.653 208.994 458.177 194.012 458.177 194.012ZM493.977 175.223C496.41 183.065 483.131 172.988 483.131 172.988L476.933 169.386L484.276 167.497L483.398 166.637L486.515 165.3C482.295 162.409 469.656 167.035 469.656 167.035L480.483 175.124C482.161 179.165 487.607 183.455 487.607 183.455L479.963 178.946C477.145 184.532 463.749 168.191 463.749 168.191C464.676 172.47 468.712 178.945 468.712 178.945C460.96 179.032 454.55 171.028 454.55 171.028C456.307 178.733 467.919 184.264 467.919 184.264L487.119 185.652L503.125 190.278L505.663 188.427C499.167 185.883 493.976 175.222 493.976 175.222L493.977 175.223ZM528.828 145.673L522.265 136.961L512.344 130.947H507.826L516.475 144.797L519.46 145.493C519.46 145.493 527.335 154.488 520.18 165.024L504.274 160.244C504.274 160.244 497.709 156.774 501.339 147.985C501.339 147.985 498.097 149.142 497.016 156.158C497.016 156.158 490.453 155.078 491.612 151.378C491.612 151.378 481.616 155.027 479.513 147.985C479.513 147.985 478.872 156.62 473.312 149.527C473.312 149.527 472.347 151.984 471.054 151.835L471.614 153.922L489.053 159.666C487.991 160.443 487.189 161.696 487.365 163.713C487.365 163.713 509.988 165.178 516.126 168.917L518.25 169.727L514.544 182.139L524.813 174.661V168.898L524.89 168.917L529.832 164.349L531.453 153.768L528.828 145.673ZM462.637 111.571C464.228 113.551 468.409 115.99 468.409 115.99L476.632 117.07C474.934 110.786 479.605 108.512 479.605 108.512C483.157 108.088 492.23 111.249 492.23 111.249L492.499 119.151C492.499 123.16 491.225 127.478 491.225 127.478L482.578 122.929C482.887 126.707 489.527 129.482 489.527 129.482L499.564 128.557L502.37 116.555L501.253 111.519L494.303 108.203C497.768 114.834 493.618 125.319 493.618 125.319C495.159 120.54 493.618 110.362 493.618 110.362C487.519 106.199 476.606 105.971 476.608 105.966C476.608 105.966 461.505 103.117 461.421 98.4892C461.421 98.4892 459.528 109.233 462.637 111.571Z" fill="#CE926E"/>
<path d="M466.833 228.654C466.833 228.654 465.128 225.567 466.234 221.047L466.833 216.884C466.833 216.884 477.611 220.379 484.765 224.799C484.765 224.799 505.664 234.976 510.451 236.21L539.483 245.41L545.866 247.414L543.344 251.629C543.344 251.629 539.265 252.865 532.019 251.912C532.019 251.912 513.951 250.293 506.076 248.032C506.076 248.032 482.935 240.517 481.213 238.163C481.213 238.163 467.564 230.847 466.833 228.654Z" fill="#9D9C9D"/>
<path d="M537.115 250.036L539.431 249.265L541.078 246.696L538.196 244.897L519.768 239.14L502.781 233.795L482.028 224.146C482.028 224.146 478.021 224.749 475.191 221.203L470.043 219.609L471.124 221.974L466.955 220.792C466.955 220.792 466.491 220.946 467.366 221.46C467.366 221.46 471.158 222.066 469.837 223.311C469.837 223.311 477.276 226.146 477.586 227.185L472.308 225.675L470.949 226.04C467.891 225.377 467.984 226.317 467.984 226.317C467.443 229.71 476.964 234.348 476.964 234.348L480.261 237.805L498.251 244.705C502.343 246.324 519.214 249.793 519.214 249.793C532.306 252.12 537.166 250.95 537.166 250.95C538.903 250.757 540.563 251.914 540.563 251.914H542.494C542.957 250.372 537.114 250.038 537.114 250.038L537.115 250.036ZM515.297 242.453L529.267 246.457L515.908 241.299L512.23 239.425L514.993 240.279L536.858 245.565L532.586 245.102L533.152 246.13H532.225L536.343 248.494L527.071 247.332C522.014 246.183 517.865 244.035 515.297 242.453Z" fill="#7B7F7F"/>
<path d="M524.784 123.67L562.191 125.636L563.751 132.008L562.886 138.472L558.203 148.198L544.935 141.818L524.784 123.67Z" fill="#BA1921"/>
<path d="M560.222 135.727L557.86 138.811C557.86 138.811 542.581 136.06 533.735 130.111L501.848 113.168L503.425 115.913L540.178 156.158L543.189 159.55L557.671 140.475C557.671 140.475 559.79 142.126 558.709 146.443L560.222 143.969C560.222 143.969 561.581 137.5 560.222 135.727Z" fill="#AF0E0F"/>
<path d="M501.848 113.168L541.461 153.505C541.461 153.505 535.091 142.404 555.475 141.363C555.475 141.363 533.37 136.159 537.879 130.03L534.976 128.288C534.976 128.288 545.283 130.501 552.463 127.606C552.463 127.606 562.77 125.933 562.307 132.007L560.222 135.727L560.454 144.369L562.322 138.471L565.643 127.631L561.411 124.356L529.445 121.463L514.929 118.534L505.663 113.522C505.663 113.522 501.504 111.888 501.847 113.168L501.848 113.168Z" fill="#930910"/>
<path d="M487.905 91.8334L510.744 83.648L535.777 64.0268L545.66 62.4841L569.178 70.0404L568.52 62.1688L562.956 45.6778L560.948 43.0565L525.594 39.5093L514.003 39.0991H498.097C498.097 39.0991 483.066 39.5617 480.545 42.5939L478.537 49.1217L477.559 53.0282L478.485 76.0547L481.985 87.0025C481.985 87.0025 483.478 90.2398 487.905 91.8334Z" fill="#BA1921"/>
<path d="M563.581 43.3132L526.173 39.9641C512.971 38.9403 505.212 39.9641 505.212 39.9641L531.453 45.2661L498.02 46.7695L500.495 59.2623L487.519 76.8249L484.894 82.5856C495.704 75.394 506.745 85.4598 506.745 85.4598C511.037 84.9718 525.826 71.9794 525.826 71.9794C532.312 60.8782 545.63 62.9598 545.63 62.9598L568.561 69.4699V59.4743L563.581 43.3132ZM479.682 43.7504L477.404 53.0791L479.18 76.6707L483.566 83.648V82.968L484.894 40.7559C483.729 40.1584 479.682 43.7504 479.682 43.7504Z" fill="#AF0E0F"/>
<path d="M479.18 76.6707L483.566 82.968C483.566 82.968 488.418 64.151 507.18 55.345C507.18 55.345 506.927 50.0075 498.02 46.7695L506.127 46.4487L527.335 47.9907C527.335 47.9907 561.36 49.9135 563.342 46.4487C563.342 46.4487 570.677 63.7185 568.901 69.5778L548.594 63.1017C548.594 63.1017 541.722 55.0836 537.939 54.0813C537.939 54.0813 529.986 51.6142 526.898 56.5484C526.898 56.5484 498.483 65.3028 489.45 79.2365C489.45 79.2365 501.572 76.6592 507.826 82.5864L509.293 84.3041L504.892 86.1544C504.892 86.1544 497.987 83.6804 495.858 82.2225C493.813 80.8224 489.064 79.0893 485.975 83.0706L489.372 91.2428L488.214 92.0138L482.346 88.2361C482.346 88.2361 478.872 78.1356 479.18 76.6707ZM535.108 166.926L537.939 165.332L542.778 159.833L533.229 148.679C533.229 148.679 531.968 163.045 535.108 166.926Z" fill="#930910"/>
<path d="M479.161 43.3132C479.161 43.3132 483.041 39.9726 493.079 39.3558C493.079 39.3558 517.787 38.8162 521.261 39.8184L564.654 44.4951L565.247 39.5093C565.247 39.5093 563.677 36.6066 559.636 35.6814L552.635 34.1649L538.762 33.3423L523.68 33.2397L509.01 32.4688C509.01 32.4688 485.022 32.623 479.772 36.7345C479.772 36.7345 476.696 40.2293 479.161 43.3132Z" fill="#7B7F7F"/>
<path d="M479.024 42.1552C479.024 42.1552 481.45 36.5618 500.028 37.12C504.948 37.268 519.717 36.9496 519.717 36.9496L512.536 35.4239L536.855 33.9668L534.954 33.2397H523.063L503.657 32.4688C503.657 32.4688 483.965 33.3662 480.803 36.2719C480.803 36.2719 475.856 39.5069 479.024 42.1552Z" fill="#9D9C9D"/>
<path d="M729.812 310.352H628.432L564.614 260.747L552.918 245.05L559.18 156.158L560.826 120.616L508.753 114.654C508.753 114.654 481.385 104.79 488.214 92.1032L511.841 83.8801L532.357 65.467C532.357 65.467 545.042 58.3224 556.779 66.4947C556.779 66.4947 595.385 78.5218 610.673 93.6328C610.673 93.6328 623.608 102.501 619.997 124.358C619.997 124.358 626.733 152.843 630.439 161.016C630.439 161.016 638.624 176.898 655.302 187.999L729.812 231.06V310.352Z" fill="#E0A98A"/>
<path d="M491.554 90.5258C491.554 90.5258 494.661 95.0206 500.954 94.9435L515.239 89.5853C515.239 89.5853 513.965 85.1522 511.841 83.8801L491.554 90.5258Z" fill="#F9C8C0"/>
<path d="M574.277 118.324L577.747 111.364L577.247 105.167L581.641 94.8656L576.082 96.1169V87.1559C573.874 100.367 569.929 99.1036 569.929 99.1036C566.779 105.345 566.662 96.4646 566.662 96.4646C562.331 106.264 563.751 97.0721 563.751 97.0721C558.362 107.711 557.674 95.5688 557.674 95.5688C553.621 109.908 554.2 93.4871 554.2 93.4871C549.683 105.051 548.515 90.9375 548.515 90.9375L547.483 91.8326C547.946 89.8312 544.734 74.0487 544.734 74.0487C543.721 98.2062 537.06 87.8213 537.06 87.8213C535.902 105.746 527.448 91.8326 527.448 91.8326C526.29 105.211 522.7 95.4531 522.7 95.4531C518.762 110.139 518.088 91.8326 518.088 91.8326C516.373 104.055 510.308 96.1161 510.308 96.1161C506.723 104.19 496.41 97.9973 496.41 97.9973C494.326 103.548 487.146 97.9973 487.146 97.9973C487.614 105.931 504.38 113.077 504.38 113.077L522.121 118.147L562.308 120.615L574.277 118.323L574.277 118.324ZM590.186 234.578C590.186 234.578 592.394 230.219 615.218 243.58L668.505 268.642C668.505 268.642 640.717 249.46 611.368 233.123C611.368 233.123 602.709 225.099 624.948 218.726C624.948 218.726 601.319 206.801 586.492 226.232L575.387 231.06L581.802 233.124L574.417 234.194C573.967 229.478 579.446 225.032 579.446 225.032C570.308 229.846 578.616 219.609 578.616 219.609C596.222 210.673 606.415 193.618 606.415 193.618C599.187 199.925 580.728 207.034 580.728 207.034C584.34 205.573 588.604 200.87 592.54 195.53C596.278 192.598 600.745 188.591 604.959 183.528L625.189 158.086C625.189 158.086 621.255 181.217 593.726 198.332C593.726 198.332 610.364 192.625 625.189 170.113C625.189 170.113 614.743 188.646 604.187 197.405C604.187 197.405 606.558 199.283 597.96 206.285L607.584 201.26C607.584 201.26 628.895 180.29 631.52 175.047V165.179L620.556 139.891L619.63 114.141C619.63 114.141 620.726 91.7023 603.809 91.3569C603.809 91.3569 613.459 102.897 598.937 109.361C598.937 109.361 625.405 104.237 587.883 128.289L604.955 133.074L587.883 135.367C587.883 135.367 595.592 139.731 591.705 145.208H601.253C601.253 145.208 591.608 159.295 571.758 161.478C571.758 161.478 588.019 165.429 597.335 160.047L581.396 179.519C581.396 179.519 598.627 167.338 609.282 156.544C609.282 156.544 605.734 171.454 590.152 180.411L577.747 182.462C571.087 183.104 566.662 155.068 566.662 155.068C562.747 159.315 564.476 182.874 566.932 203.878L566.662 204.191L567.027 204.683C568.525 217.36 570.267 228.995 571.161 234.737L554.2 239.187L551.992 246.131L551.297 247.905L547.204 246.979L543.035 251.143C543.035 251.143 545.892 252.404 532.457 252.274C532.457 252.274 551.653 272.384 570.529 270.649L586.164 276.778L609.211 296.09L625.193 310.353H653.905C653.905 310.353 618.924 284.756 614.06 274.347C614.06 274.347 582.731 254.916 599.09 253.991L633.75 291.695C633.75 291.695 606.527 253.469 598.77 245.895L592.141 241.196L586.427 249.985C586.427 249.985 582.386 254.139 583.48 245.895L590.185 234.58L590.186 234.578ZM613.761 157.802L620.711 156.158L604.959 175.568L600.806 177.311L613.761 157.802Z" fill="#CE926E"/>
<path d="M631.52 177.205L622.974 185.449L729.812 253.065V234.097L631.52 177.205Z" fill="#CE926E"/>
<path d="M575.387 229.133C579.897 224.276 595.546 217.916 595.546 217.916C578.521 222.658 575.387 229.133 575.387 229.133ZM592.142 236.072L587.786 244.744L600.409 229.133L592.142 237.575L601.567 218.726L595.546 227.977V225.086L592.142 236.072ZM611.368 233.123L668.505 268.642C660.166 257.849 611.368 233.123 611.368 233.123ZM622.974 247.574L680.112 283.093C671.773 272.3 622.974 247.574 622.974 247.574ZM590.77 231.717L592.142 230.402C591.756 230.666 591.289 231.123 590.77 231.717ZM504.054 160.675L520.615 165.763C528.259 150.267 519.457 144.948 519.457 144.948L507.991 144.37C494.924 150.407 504.054 160.675 504.054 160.675ZM519.331 145.981C519.331 145.981 526.357 152.611 519.871 164.33L505.124 159.935C505.124 159.935 497.248 150.684 508.212 145.441L519.331 145.981ZM481.817 132.69C481.817 132.69 473.016 140.091 476.374 152.349C476.374 152.349 474.289 142.404 481.817 132.69Z" fill="black"/>
<path d="M479.269 150.961C479.269 150.961 478.937 143.02 485.408 135.118C485.408 135.118 476.364 143.008 479.269 150.961ZM511.841 143.668C511.841 143.668 503.039 140.29 499.487 150.961C499.487 150.961 502.962 142.512 511.841 143.668ZM519.254 147.523C522.496 155.31 519.254 162.557 519.254 162.557C524.35 155.078 519.254 147.523 519.254 147.523ZM475.102 162.711C475.102 162.711 473.614 171.707 474.316 175.124L475.102 162.711ZM486.516 171.346C486.516 171.346 477.586 173.042 484.946 180.675C484.946 180.675 479.18 174.275 486.516 171.346ZM490.839 169.386C490.839 169.386 486.438 173.659 487.21 181.06C487.21 181.06 487.674 173.979 490.839 169.386Z" fill="black"/>
<path d="M660.624 188.065C657.179 185.961 650.583 181.255 647.546 178.599C644.572 175.999 639.078 170.273 636.66 167.151C635.126 165.172 632.133 161.104 631.1 158.824C628.975 154.131 625.309 139.05 625.309 139.05C623.572 134.193 621.951 110.834 621.951 110.834C622.877 100.311 612.107 92.3314 612.107 92.3314C605.389 86.8961 588.828 77.7609 588.828 77.7609C583.34 74.1366 576.771 71.1236 570.693 68.7714L569.835 63.8842C569.835 52.3205 565.202 45.8443 565.202 45.8443V44.3409L565.58 40.1268C565.503 37.5826 562.646 36.1178 562.646 36.1178C556.083 32.0316 523.731 32.7255 523.731 32.7255C510.914 30.8752 497.247 32.1087 497.247 32.1087C481.728 33.8049 479.566 36.0407 479.566 36.0407C475.783 38.7391 478.551 43.9816 478.551 43.9816L478.485 46.7571L476.632 52.231L477.647 76.6368C474.83 77.8334 464.131 83.0544 461.189 94.403C461.189 94.403 458.718 105.197 459.645 107.972C459.645 107.972 459.645 113.019 466.606 117.632C464.844 118.484 459.39 121.49 457.844 126.68C457.844 126.68 454.858 137.063 458.409 142.357C458.409 142.357 460.557 146.159 463.795 149.809C460.899 150.23 453.526 151.991 451.615 159.087C450.704 162.467 449.329 167.879 452.773 173.041C455.27 176.785 458.567 181.323 466.202 184.301C462.949 185.091 455.016 187.985 454.832 197.448C454.832 197.448 455.221 204.519 458.075 207.162C459.731 208.695 463.982 213.985 463.982 213.985C463.982 213.985 465.273 215.545 466.501 216.483C466.096 217.877 465.667 219.753 465.667 221.459C465.667 221.459 464.432 226.701 466.44 229.014C466.44 229.014 479.257 241.967 509.524 249.368C509.524 249.368 521.088 251.367 530.934 252.292C532.966 254.667 547.152 270.273 571.109 272.729L582.69 276.892C582.69 276.892 587.902 281.518 591.26 284.178C591.26 284.178 598.672 291.348 605.389 295.511L623.645 310.352L628.432 310.352C628.432 310.352 620.247 302.257 623.181 298.865L618.085 300.098C618.085 300.098 600.172 291.001 607.276 269.722C607.276 269.722 601.556 281.297 602.952 288.071C592.407 281.672 590.818 280.7 590.186 276.43C589.919 274.623 589.871 272.492 589.911 270.306C595.223 273.641 602.334 279.127 602.334 279.127C599.554 273.576 595.295 270.495 592.142 268.642C591.622 268.337 589.995 267.538 589.995 267.538C590.117 264.524 590.297 261.624 590.186 259.546C590.056 257.117 592.142 241.196 592.142 241.196L586.428 249.985V255.227C586.428 255.227 579.325 255.381 582.259 248.597L579.788 251.372L581.641 245.513C581.641 245.513 587.346 235.632 590.77 231.717L584.575 237.649L595.539 220.688C595.539 220.688 582.413 233.023 580.251 243.817C580.251 243.817 577.472 256.152 574.229 248.597C574.229 248.597 573.55 233.71 573.209 223.962C592.035 220.065 620.403 191.285 630.242 180.783C643.767 188.333 713.584 227.622 729.812 243.199V223.224C729.812 223.224 677.18 198.177 660.624 188.065ZM614.987 100.86C622.4 118.208 607.342 131.162 607.342 131.162C606.905 131.478 606.474 131.809 606.05 132.151L591.821 128.289L602.014 124.357L587.883 128.289L604.955 133.074C603.23 134.584 601.645 136.244 600.279 137.819C594.833 136.652 578.223 133.218 574.723 133.938L599.314 138.957C596.84 141.949 595.295 144.37 595.295 144.37L609.167 137.871C612.382 142.498 589.967 169.387 589.967 169.387L609.167 152.443C604.505 173.493 580.469 187.041 580.469 187.041C582.203 187.525 584.014 187.525 585.865 187.14L573.147 200.952L596.887 181.221C608.871 171.517 619.62 153.832 619.62 153.832C615.538 177.794 581.64 194.774 581.64 194.774C583.918 195.732 586.495 195.487 589.225 194.385C582.641 199.582 574.105 205.513 570.213 204.807C570.213 204.807 566.352 186.458 567.742 170.267C567.742 170.267 566.661 150.068 563.882 140.816C563.882 140.816 563.109 131.644 568.205 124.358L574.276 118.325L573.056 116.762L577.747 111.364L577.713 110.265C582.812 105.065 590.453 97.1215 591.821 94.8464L587.419 97.6218L585.103 88.6007V100.629L577.687 109.458L577.596 106.579L580.56 102.774L581.641 94.8656C581.641 94.8656 572.993 113.37 566.971 116.299C566.971 116.299 565.581 113.678 565.272 111.519C565.272 111.519 551.837 118.921 547.204 105.814C547.204 105.814 550.602 80.8348 546.896 74.0502C546.896 74.0502 547.05 76.8257 546.432 78.9844L544.734 74.0502C544.734 74.0502 547.953 100.109 541.645 106.585C541.645 106.585 534.387 113.678 525.739 111.828C525.739 111.828 511.784 120.308 490.839 102.73C490.839 102.73 486.516 97.3335 489.141 91.9367L491.205 91.3307C492.496 92.6776 495.679 95.4068 500.645 95.8687L516.397 89.9322C516.397 89.9322 516.016 85.8175 513.475 84.0127C520.215 77.6275 536.686 65.9319 536.686 65.9319C541.551 62.4626 551.049 65.9319 551.049 65.9319C597.612 80.9674 614.987 100.86 614.987 100.86ZM546.278 165.762L554.771 157.161L529.995 242.024C524.142 239.993 516.621 237.15 512.074 235.872C507.528 234.595 512.072 235.872 512.072 235.872C511.65 235.753 511.254 235.648 510.888 235.559C503.137 233.38 490.342 227.425 484.046 223.85C479.071 221.027 470.495 217.632 468.09 216.697L537.168 166.413C537.168 166.413 542.418 162.019 543.885 159.783C543.885 159.783 556.934 146.06 557.783 139.892C557.783 139.892 549.385 150.924 543.208 158.538L501.848 113.17C502.705 113.505 503.61 113.822 504.562 114.114L532.081 140.324L529.533 133.617L533.471 135.729V130.61L534.397 128.875L524.785 123.671L534.976 127.256C534.976 127.256 542.273 129.107 547.831 127.488C547.831 127.488 559.927 124.383 564.593 128.959C563.065 134.682 560.99 141.509 559.436 143.041L559.338 143.97L546.279 165.765L546.278 165.762ZM558.716 149.859L556.656 169.387L550.769 246.593C550.769 246.593 550.751 246.807 550.727 247.185C550.727 247.185 538.87 244.796 535.005 243.664C533.886 243.336 532.55 242.899 531.079 242.398L557.088 153.306L558.716 149.859ZM467.369 217.405C482.2 222.518 482.578 224.851 482.578 224.851L480.877 225.397C476.423 223.693 473.176 222.381 472.617 222.076C472.617 222.076 482.423 228.629 494.546 233.255C494.546 233.255 483.046 229.93 479.258 228.012C476.426 226.579 470.455 223.584 466.963 224.846C466.788 223.707 466.635 221.876 467.367 221.459C467.367 221.459 466.923 218.479 467.369 217.405ZM508.96 185.561L500.568 180.52C500.568 180.52 496.466 174.555 501.958 170.035C501.958 170.035 512.999 169.033 517.246 170.035L513.758 182.162L508.96 185.561ZM533.461 150.838L542.023 159.987C540.185 162.223 538.636 164.026 537.707 164.947C537.707 164.947 536.92 165.452 535.708 166.247L533.461 150.838ZM492.7 90.8921L511.996 85.2324C512.813 86.1945 514.079 87.8675 514.235 89.1605L500.723 94.1718C500.723 94.1718 494.562 93.9011 492.7 90.8921ZM480.08 37.2873C490.155 31.1581 523.741 33.818 523.741 33.818C529.532 33.3554 552.231 34.7431 552.231 34.7431C545.134 34.6275 520.498 36.2465 520.498 36.2465L558.399 36.5032C563.495 36.6574 564.731 39.8955 564.731 39.8955L564.567 43.0364C558.45 35.3337 514.012 38.6743 514.012 38.6743L496.552 38.1986C483.985 38.4515 480.165 40.6642 479.023 42.1544C478.218 38.6381 480.079 37.2858 480.079 37.2858L480.08 37.2873ZM480.427 44.4573C482.628 38.2125 515.982 40.2941 515.982 40.2941L561.744 46.3786C554.503 49.8703 506.127 46.4487 506.127 46.4487C549.711 51.0229 560.831 49.2266 563.527 48.3345C565.865 53.1338 567.171 64.4624 567.171 64.4624L567.463 67.5633C558.688 64.3938 551.652 62.7278 551.652 62.7278C543.42 59.2623 536.017 61.9183 536.017 61.9183C531.452 63.2559 523.741 71.1691 523.741 71.1691C521.425 74.0602 510.539 82.9642 510.539 82.9642L488.523 91.0871L479.964 77.0663L478.458 53.1292L480.427 44.4573ZM486.676 90.064L483.326 88.2068L479.412 77.9043L486.676 90.064ZM462.044 110.14C460.906 106.735 461.103 101.77 463.983 94.0661C465.781 89.253 468.437 84.015 479.006 80.2095L481.704 87.3078L477.417 84.9309L486.913 92.4479C486.913 92.4479 483.554 97.5363 488.998 103.896C488.998 103.896 492.361 109.034 500.511 112.613C500.869 113.848 502.977 121.953 498.494 127.602L490.272 128.411L482.983 123.465L491.522 128.288C494.046 121.458 492.588 110.95 492.588 110.95C481.501 106.727 478.922 108.29 478.922 108.29C475.761 110.964 475.376 113.836 475.874 116.151C475.051 115.391 474.127 114.131 473.941 112.221C473.941 112.221 470.467 119.044 467.108 110.139C467.108 110.139 464.616 113.273 462.043 110.139L462.044 110.14ZM490.917 114.063C489.218 111.981 480.03 108.974 480.03 108.974C480.03 108.974 484.276 108.743 491.843 111.596C491.843 111.596 492.924 119.228 491.071 127.092L479.335 120.693C479.335 120.693 474.453 113.645 478.777 109.839C485.353 110.838 489.758 114.371 489.758 114.371C490.608 115.219 490.531 124.702 490.531 124.702C491.693 119.845 490.917 114.063 490.917 114.063ZM460.727 141.509C458.589 136.269 456.424 126.479 466.749 119.691C466.749 119.691 465.282 123.16 467.444 124.702C467.444 124.702 478.563 123.856 484.817 128.288L488.755 130.33C488.755 130.33 498.252 129.405 501.031 130.716L520.404 137.892C523.077 139.643 525.326 141.647 526.666 143.899C526.666 143.899 535.876 157.992 524.571 167.989L500.954 161.632C500.954 161.632 494.509 159.956 487.54 157.888C487.715 155.674 488.525 150.15 492.241 143.04C492.241 143.04 486.564 150.335 487.329 157.825C480.04 155.657 472.243 153.072 470.687 151.533C468.176 149.048 462.381 145.567 460.727 141.509ZM455.245 172.425C452.648 167.483 448.695 157.437 463.892 151.84C463.892 151.84 464.695 155.078 478.694 159.01C478.694 159.01 479.41 159.239 480.528 159.716C479.329 161.046 476.662 164.194 476.246 166.335C476.246 166.335 479.068 161.46 481.43 160.117C482.182 160.466 483.044 160.899 483.954 161.421C481.411 162.627 474.936 166.812 476.246 177.756C476.246 177.756 475.909 166.759 484.111 161.511C484.574 161.78 485.048 162.072 485.526 162.387C484.612 164.072 483.171 166.835 482.963 167.876L480.509 171.885L483.396 168.474C483.396 168.474 484.817 164.838 486.217 162.858C486.601 163.128 486.986 163.413 487.365 163.713C487.365 163.713 495.629 163.315 506.744 165.332L522.805 169.495C522.805 169.495 523.165 173.457 522.932 175.66L515.598 180.857L519.253 169.347C516.618 167.381 501.505 169.347 501.505 169.347C493.79 173.901 499.486 181.258 499.486 181.258L507.574 186.542L504.227 188.914L490.22 185.146C490.22 185.146 487.177 184.147 482.907 183.38C472.044 177.507 465.256 165.184 465.256 165.184C469.188 175.72 478.073 181.172 482.433 183.297C478.391 182.602 473.349 182.146 468.754 182.91C468.754 182.91 460.071 181.617 455.242 172.425H455.245ZM458.192 198.836C458.192 198.836 455.997 187.49 466.298 186.116C466.298 186.116 472.486 184.542 480.775 185.653C480.775 185.653 491.99 188.07 499.207 192.472L483.083 204.496C479.919 205.198 461.783 208.749 458.192 198.836ZM509.602 248.289C509.602 248.289 488.6 244.357 467.444 228.706C467.444 228.706 465.668 226.779 467.135 225.776C467.135 225.776 471.072 225.103 479.18 228.783C485.953 231.857 507.054 239.191 507.054 239.191L529.446 246.515L507.826 237.187L537.385 245.119L539.792 246.592L533.306 245.359L538.093 248.905L536.642 249.721C528.654 248.584 504.633 239.772 504.633 239.772C497.452 237.228 475.795 228.556 475.795 228.556C462.477 223.12 470.815 229.943 470.815 229.943C477.069 235.379 486.45 239.194 486.45 239.194C481.307 235.956 486.102 234.453 486.102 234.453L495.367 238.153L491.545 239.541L493.514 241.16L488.766 240.119C491.661 242.317 504.284 246.017 504.284 246.017C528.773 251.92 535.652 251.244 537.582 250.444L538.634 250.525C538.634 250.525 541.245 250.983 541.877 251.759C541.877 251.759 526.525 252.452 509.602 248.289ZM573.457 264.171C573.457 264.171 563.728 262.012 560.639 257.232C560.639 257.232 565.272 266.792 578.089 267.254L579.788 271.88L582.259 268.642C582.259 268.642 583.819 272.019 585.859 275.1L582.568 273.576L571.295 269.413C571.295 269.413 546.596 266.305 533.681 252.524C539.898 252.983 544.812 252.844 544.579 251.218L548.903 247.98L550.663 248.393C550.513 251.796 550.437 259.141 552.3 262.629V254.919C552.3 254.919 553.69 262.166 557.551 264.325C557.551 264.325 554.926 258.62 554.617 255.844C554.617 255.844 559.867 265.712 564.963 267.254C564.963 267.254 552.609 253.839 552.918 245.05C552.918 245.05 562.956 257.386 573.457 264.171ZM573.138 221.892C573.11 221.007 573.085 220.187 573.066 219.454C573.066 219.454 593.276 208.198 597.959 202.03C597.959 202.03 576.699 214.983 570.985 210.974C570.985 210.974 589.007 198.645 595.753 190.461C609.421 179.939 624.021 156.158 624.021 156.158C626.337 172.826 592.978 198.474 592.978 198.474C609.889 195.698 628.191 161.001 628.191 161.001L625.411 173.261L628.944 170.341C624.095 181.755 604.187 197.405 604.187 197.405C608.265 196.787 612.963 193.635 617.412 189.712C603.067 204.668 582.345 216.859 573.138 221.892Z" fill="black"/>
<path d="M550.769 59.2623C512.368 43.0087 485.408 82.5856 485.408 82.5856C516.507 47.9321 545.193 57.0234 550.769 59.2623ZM550.769 59.2623C551.093 59.3995 551.418 59.5406 551.744 59.6855C551.744 59.6855 551.408 59.519 550.769 59.2623Z" fill="black"/>
<path d="M488.214 81.1424C499.642 78.8295 507.826 82.5864 507.826 82.5864C500.259 76.0116 488.214 81.1424 488.214 81.1424ZM581.396 110.112L602.014 100.166L590.186 104.329L594.137 96.4646L581.396 110.112ZM594.137 108.007C591.126 111.684 578.616 118.147 578.616 118.147C589.504 114.848 594.137 108.007 594.137 108.007ZM582.439 120.616C580.238 122.33 573.057 123.991 573.057 123.991C579.829 125.745 582.439 120.616 582.439 120.616ZM606.415 110.112C598.307 122.372 581.396 126.535 581.396 126.535C600.392 124.454 606.415 110.112 606.415 110.112ZM597.96 152.348L565.643 139.257C575.373 144.809 597.96 152.348 597.96 152.348ZM583.803 128.288C576.847 129.088 565.643 135.727 565.643 135.727L583.803 128.288ZM575.387 139.258C576.854 140.322 602.014 148.679 602.014 148.679C594.126 145.133 575.387 139.258 575.387 139.258ZM604.959 158.085C601.253 165.178 581.396 179.518 581.396 179.518C601.845 169.187 604.959 158.085 604.959 158.085ZM468.602 201.568C468.602 201.568 464.742 191.545 470.919 186.457C470.919 186.457 462.79 191.044 468.602 201.568ZM479.964 187.85C479.964 187.85 474.173 193.864 478.922 201.033C478.922 201.033 475.563 194.094 479.964 187.85ZM482.037 187.272C482.037 187.272 479.269 193.632 481.122 197.679C481.122 197.679 480.52 192.475 482.037 187.272ZM569.75 110.112L576.082 98.6341L581.802 87.9269L576.7 94.2489L576.082 87.1559L574.723 98.1037L569.75 110.112ZM566.662 108.007C566.662 108.007 572.891 96.6543 575.387 84.2263L566.662 108.007ZM598.771 245.894C610.626 261.252 633.751 291.694 633.751 291.694C624.021 273.037 598.771 245.894 598.771 245.894Z" fill="black"/>
<path d="M571.758 161.478C605.423 163.637 604.959 142.512 604.959 142.512C601.871 162.248 571.758 161.478 571.758 161.478ZM569.75 177.205C569.75 177.205 581.076 176.744 591.705 161.632C591.705 161.632 580.251 174.43 569.75 177.205Z" fill="black"/>
<path d="M511.417 148.198C514.018 148.198 516.126 147.689 516.126 147.061C516.126 146.433 514.018 145.924 511.417 145.924C508.815 145.924 506.707 146.433 506.707 147.061C506.707 147.689 508.815 148.198 511.417 148.198Z" fill="#F9C8C0"/>
<path d="M534.976 128.288C554.201 134.235 559.18 141.818 559.18 141.818C559.18 130.947 534.976 128.288 534.976 128.288ZM491.554 44.3409C500.365 47.3477 510.654 44.3409 510.654 44.3409C501.158 42.028 491.554 44.3409 491.554 44.3409Z" fill="white"/>
</svg>
