<svg width="730" height="310" viewBox="0 0 730 310" fill="none" xmlns="http://www.w3.org/2000/svg">
<g clip-path="url(#clip0_1_2)">
<rect width="730" height="310" fill="white"/>
<rect width="730" height="310" fill="#272727"/>
<circle cx="426" cy="155" r="155" fill="url(#paint0_linear_1_2)"/>
<rect x="200" width="226" height="310" fill="#EAEAEA"/>
<path d="M150.032 152.356L187.348 139.132L189.096 145.592L151.856 158.968L150.032 152.356ZM170.856 124.54H177.392V177.436H170.856V124.54ZM156.796 130.848H163.408V181.92C163.408 186.024 164.092 186.708 168.348 186.708C170.4 186.708 180.736 186.708 183.168 186.708C186.968 186.708 187.652 184.732 188.108 176.22C189.704 177.36 192.44 178.5 194.34 178.88C193.352 189.672 191.3 193.32 183.624 193.32C181.496 193.32 169.868 193.32 167.892 193.32C159.304 193.32 156.796 190.964 156.796 181.92V130.848ZM185.144 140.652H184.46L185.904 139.512L187.272 138.524L192.06 140.5L191.756 141.64C191.68 154.712 191.528 165.352 190.996 168.316C190.54 171.888 189.248 173.56 187.044 174.244C185.068 175.004 182.408 175.08 180.28 175.08C180.128 172.952 179.596 169.76 178.836 168.088C180.128 168.24 181.952 168.164 182.788 168.164C183.7 168.164 184.232 167.936 184.612 166.34C184.992 164.592 185.144 155.7 185.144 140.652ZM124.496 139.284H146.156V145.972H124.496V139.284ZM125.18 167.1L129.208 161.932C137.264 167.404 147.676 175.536 152.312 181.312L147.828 187.316C143.344 181.388 133.312 172.876 125.18 167.1ZM144.104 139.284H145.32L146.536 139.132L150.716 139.74C149.12 169.76 141.976 185.948 127.688 194.46C126.776 192.712 124.952 190.128 123.432 188.684C135.896 182.224 142.736 166.112 144.104 140.652V139.284ZM125.18 167.1C128.524 156.156 132.172 137.764 133.464 123.856L140.228 124.312C138.632 138.904 134.832 157.752 131.564 169.532L125.18 167.1ZM231.58 123.932H239.484V186.48H231.58V123.932ZM258.332 161.932H266.236V194.308H258.332V161.932ZM208.704 130.62H216.228V150.456H255.292V130.544H263.196V157.448H208.704V130.62ZM205.056 161.932H213.036V182.908H262.056V190.128H205.056V161.932ZM278.624 157.372H346.492V164.288H278.624V157.372ZM282.196 132.672H343.376V139.512H282.196V132.672ZM308.644 123.856H316.244V194.384H308.644V123.856ZM331.216 140.196L338.74 142.476C336.004 147.72 332.812 153.496 330.228 157.144L323.996 155.016C326.504 151.064 329.62 144.756 331.216 140.196ZM287.896 142.932L294.28 140.5C297.244 144.832 300.208 150.608 301.196 154.408L294.356 157.144C293.52 153.344 290.708 147.34 287.896 142.932ZM307.124 160.108L312.976 162.464C305.756 174.396 293.52 185.492 281.816 191.344C280.676 189.596 278.396 186.86 276.724 185.416C288.352 180.4 300.74 170.216 307.124 160.108ZM317.992 160.184C324.376 170.292 336.764 180.552 348.316 185.568C346.644 187.012 344.364 189.748 343.224 191.572C331.52 185.72 319.36 174.32 312.14 162.54L317.992 160.184ZM365.948 144.908H424.24V151.748H365.948V144.908ZM378.488 184.048H414.132V190.736H378.488V184.048ZM413.22 124.312L419.148 130.164C404.176 133.812 382.668 135.94 364.124 136.852C363.972 135.028 363.06 132.14 362.3 130.544C380.388 129.48 401.212 127.352 413.22 124.312ZM375.068 161.552H418.844V194.308H411.244V168.24H382.288V194.46H375.068V161.552ZM362.3 130.544H369.672V150.836C369.672 163.528 368.304 182.452 359.336 194.536C358.044 193.092 355.004 190.584 353.332 189.672C361.54 178.424 362.3 162.388 362.3 150.76V130.544ZM448.408 171.432H455.476V184.276C455.476 186.48 456.388 186.936 461.176 186.936C463.38 186.936 473.792 186.936 476.756 186.936C480.632 186.936 481.24 185.872 481.696 179.108C483.216 180.248 486.256 181.236 488.308 181.692C487.32 191.04 485.04 193.396 477.288 193.396C475.16 193.396 462.772 193.396 460.72 193.396C450.916 193.396 448.408 191.344 448.408 184.352V171.432ZM459.048 170.292L463.684 165.884C467.94 168.924 473.944 173.408 476.984 176.22L472.12 181.236C469.308 178.348 463.456 173.636 459.048 170.292ZM484.964 171.66L491.804 169.76C495.072 175.84 499.252 184.048 501.228 188.988L493.932 191.42C492.108 186.404 488.232 177.968 484.964 171.66ZM438.832 170.748L445.216 173.256C443.468 178.728 441.036 186.48 438.604 191.572L431.916 188.532C434.652 183.668 437.312 176.296 438.832 170.748ZM447.344 131.912H498.644V138.144H447.344V131.912ZM462.848 143.844H494.54V149.62H462.848V143.844ZM462.924 155.472H496.516V161.476H462.924V155.472ZM458.44 134.496H465.66V167.784H458.44V134.496ZM448.332 123.628L455.552 125.376C451.828 137.156 445.368 147.948 438.072 154.788C436.78 153.42 433.892 150.912 432.144 149.772C439.364 143.768 445.14 134.04 448.332 123.628ZM535.124 138.296H575.86V144.832H535.124V138.296ZM537.48 154.028H573.504V160.564H537.48V154.028ZM532.616 169.912H577.228V176.6H532.616V169.912ZM551.768 140.728H559.064V194.384H551.768V140.728ZM538.012 126.44L544.396 124.16C546.904 127.884 549.716 132.748 550.78 136.092L544.092 138.752C543.104 135.484 540.444 130.316 538.012 126.44ZM566.284 123.628L573.656 125.908C570.996 131.684 567.728 138.068 565.068 142.096L558.912 139.968C561.496 135.636 564.688 128.72 566.284 123.628ZM508.6 138.372H532.388V144.984H508.6V138.372ZM517.796 123.856H524.712V194.384H517.796V123.856ZM518.404 143.008L522.508 144.528C520.304 156.916 515.668 171.888 510.424 179.716C509.74 177.664 508.068 174.396 506.852 172.572C511.792 165.96 516.428 153.192 518.404 143.008ZM524.256 147.416C526.08 149.696 532.54 159.348 533.908 161.704L529.5 166.872C527.828 162.616 523.04 153.648 520.836 150.152L524.256 147.416Z" fill="url(#paint1_linear_1_2)"/>
</g>
<defs>
<linearGradient id="paint0_linear_1_2" x1="609.066" y1="154.362" x2="242.934" y2="155.638" gradientUnits="userSpaceOnUse">
<stop stop-color="#E45A5A"/>
<stop offset="0.494899" stop-color="#EAEAEA"/>
<stop offset="0.84" stop-color="#EAEAEA"/>
</linearGradient>
<linearGradient id="paint1_linear_1_2" x1="121" y1="155" x2="581" y2="155" gradientUnits="userSpaceOnUse">
<stop offset="0.115" stop-color="#B3B3B3"/>
<stop offset="0.175" stop-color="#323232"/>
<stop offset="0.666667" stop-color="#323232"/>
<stop offset="1" stop-color="#9E0000"/>
</linearGradient>
<clipPath id="clip0_1_2">
<rect width="730" height="310" fill="white"/>
</clipPath>
</defs>
</svg>
